<svg width="14" height="15" viewBox="0 0 14 15" fill="none" xmlns="http://www.w3.org/2000/svg">
<mask id="mask0_106_6759" style="mask-type:alpha" maskUnits="userSpaceOnUse" x="0" y="0" width="14" height="15">
<rect x="0.681641" y="0.955078" width="13.0909" height="13.0909" fill="#D9D9D9"/>
</mask>
<g mask="url(#mask0_106_6759)">
<path d="M5.89059 8.95643L10.3746 4.47252C10.5196 4.32743 10.6905 4.25488 10.8874 4.25488C11.0843 4.25488 11.2552 4.32743 11.4002 4.47252C11.5453 4.61752 11.6179 4.78943 11.6179 4.98825C11.6179 5.18707 11.5453 5.35902 11.4002 5.50411L6.40346 10.5069C6.25837 10.652 6.08741 10.7245 5.89059 10.7245C5.69378 10.7245 5.52282 10.652 5.37773 10.5069L3.04769 8.17684C2.90259 8.03175 2.83105 7.85979 2.83305 7.66097C2.83505 7.46216 2.90859 7.29025 3.05369 7.14525C3.19869 7.00016 3.37059 6.92761 3.56941 6.92761C3.76823 6.92761 3.94018 7.00016 4.08528 7.14525L5.89059 8.95643Z" fill="#FA7D00"/>
</g>
</svg>
