<svg width="25" height="24" viewBox="0 0 25 24" fill="none" xmlns="http://www.w3.org/2000/svg">
<mask id="mask0_1753_24090" style="mask-type:alpha" maskUnits="userSpaceOnUse" x="0" y="0" width="25" height="24">
<rect x="0.5" width="24" height="24" fill="#D9D9D9"/>
</mask>
<g mask="url(#mask0_1753_24090)">
<path d="M13.1008 12L9.20078 8.10005C9.01745 7.91672 8.92578 7.68338 8.92578 7.40005C8.92578 7.11672 9.01745 6.88338 9.20078 6.70005C9.38411 6.51672 9.61745 6.42505 9.90078 6.42505C10.1841 6.42505 10.4174 6.51672 10.6008 6.70005L15.2008 11.3C15.3008 11.4 15.3716 11.5084 15.4133 11.625C15.4549 11.7417 15.4758 11.8667 15.4758 12C15.4758 12.1334 15.4549 12.2584 15.4133 12.375C15.3716 12.4917 15.3008 12.6 15.2008 12.7L10.6008 17.3C10.4174 17.4834 10.1841 17.575 9.90078 17.575C9.61745 17.575 9.38411 17.4834 9.20078 17.3C9.01745 17.1167 8.92578 16.8834 8.92578 16.6C8.92578 16.3167 9.01745 16.0834 9.20078 15.9L13.1008 12Z" fill="white"/>
</g>
</svg>
