<svg width="71" height="51" viewBox="0 0 71 51" fill="none" xmlns="http://www.w3.org/2000/svg">
<g clip-path="url(#clip0_97_796)">
<path d="M0 21.6861C0 32.1633 11.0442 38.505 19.5668 41.1326C15.6909 43.1504 13.7309 46.4322 14.0502 50.7228C14.0943 51.0665 14.4356 51.1109 14.6228 50.8448C15.5037 49.6807 16.4947 48.9489 17.8051 48.3613C21.1414 46.9089 26.3277 46.1328 32.2407 45.2348C40.422 44.0041 49.7374 42.5739 57.3351 38.9707C64.1621 35.7222 71 29.58 71 21.6861C71 8.16 52.8866 0 35.5 0C18.1134 0 0 8.16 0 21.6861Z" fill="white"/>
<mask id="mask0_97_796" style="mask-type:luminance" maskUnits="userSpaceOnUse" x="3" y="3" width="65" height="37">
<path d="M67.3883 21.6861C67.3883 11.6746 52.6113 3.43701 35.4999 3.43701C18.3886 3.43701 3.60059 11.6746 3.60059 21.6861C3.60059 29.3029 12.5857 36.6092 25.5899 39.0483C35.9624 36.4983 51.8845 35.9107 60.7816 31.2431C64.6245 29.2253 67.3773 26.2207 67.3773 21.6861" fill="white"/>
</mask>
<g mask="url(#mask0_97_796)">
<path d="M15.7899 3.43701L3.60059 24.6907V3.43701H15.7899Z" fill="#CF0015"/>
<path d="M16.1423 3.43701L3.60059 25.3005V24.6907L15.7899 3.43701H16.1423Z" fill="#CF0015"/>
<path d="M16.4947 3.43701L3.60059 25.9214V25.3005L16.1423 3.43701H16.4947Z" fill="#CF0015"/>
<path d="M16.847 3.43701L3.60059 26.5311V25.9214L16.4947 3.43701H16.847Z" fill="#D00015"/>
<path d="M17.1994 3.43701L3.60059 27.152V26.5311L16.847 3.43701H17.1994Z" fill="#D00015"/>
<path d="M17.5407 3.43701L3.60059 27.7618V27.152L17.1994 3.43701H17.5407Z" fill="#D00015"/>
<path d="M17.8931 3.43701L3.60059 28.3716V27.7618L17.5407 3.43701H17.8931Z" fill="#D00015"/>
<path d="M18.2454 3.43701L3.60059 28.9924V28.3716L17.8931 3.43701H18.2454Z" fill="#D10015"/>
<path d="M18.5978 3.43701L3.60059 29.6022V28.9924L18.2454 3.43701H18.5978Z" fill="#D10015"/>
<path d="M18.9501 3.43701L3.60059 30.2231V29.6022L18.5978 3.43701H18.9501Z" fill="#D10015"/>
<path d="M19.3025 3.43701L3.60059 30.8329V30.2231L18.9502 3.43701H19.3025Z" fill="#D20015"/>
<path d="M19.6549 3.43701L3.60059 31.4427V30.8329L19.3025 3.43701H19.6549Z" fill="#D20015"/>
<path d="M20.0072 3.43701L3.60059 32.0635V31.4427L19.6549 3.43701H20.0072Z" fill="#D30015"/>
<path d="M20.3596 3.43701L3.60059 32.6733V32.0635L20.0072 3.43701H20.3596Z" fill="#D30015"/>
<path d="M20.7119 3.43701L3.60059 33.2942V32.6733L20.3596 3.43701H20.7119Z" fill="#D40016"/>
<path d="M21.0643 3.43701L3.60059 33.904V33.2942L20.7119 3.43701H21.0643Z" fill="#D40016"/>
<path d="M21.4167 3.43701L3.60059 34.5137V33.904L21.0643 3.43701H21.4167Z" fill="#D50016"/>
<path d="M21.769 3.43701L3.60059 35.1346V34.5137L21.4167 3.43701H21.769Z" fill="#D60016"/>
<path d="M22.1214 3.43701L3.66665 35.6335L3.60059 35.6003V35.1346L21.769 3.43701H22.1214Z" fill="#D60016"/>
<path d="M22.476 3.43701L3.93321 35.7887L3.66895 35.6335L22.1237 3.43701H22.476Z" fill="#D70016"/>
<path d="M22.8258 3.43701L4.19493 35.944L3.93066 35.7887L22.4735 3.43701H22.8258Z" fill="#D80016"/>
<path d="M23.1804 3.43701L4.46141 36.0992L4.19714 35.944L22.828 3.43701H23.1804Z" fill="#D80016"/>
<path d="M23.5301 3.43701L4.712 36.2544L4.45874 36.0992L23.1777 3.43701H23.5301Z" fill="#D90017"/>
<path d="M23.8853 3.43701L4.97911 36.3985L4.71484 36.2544L23.5329 3.43701H23.8853Z" fill="#DA0017"/>
<path d="M24.2351 3.43701L5.24083 36.5538L4.97656 36.3985L23.8827 3.43701H24.2351Z" fill="#DA0017"/>
<path d="M24.5908 3.43701L5.50841 36.709L5.24414 36.5538L24.2384 3.43701H24.5908Z" fill="#DB0017"/>
<path d="M24.9406 3.43701L5.77013 36.8642L5.50586 36.709L24.5882 3.43701H24.9406Z" fill="#DC0017"/>
<path d="M25.295 3.43701L6.03649 37.0194L5.77222 36.8642L24.9427 3.43701H25.295Z" fill="#DD0017"/>
<path d="M25.6449 3.43701L6.29833 37.1746L6.03406 37.0194L25.2926 3.43701H25.6449Z" fill="#DE0018"/>
<path d="M25.9998 3.43701L6.56505 37.3187L6.30078 37.1746L25.6474 3.43701H25.9998Z" fill="#DE0018"/>
<path d="M26.3497 3.43701L6.82689 37.474L6.56262 37.3188L25.9973 3.43701H26.3497Z" fill="#DF0018"/>
<path d="M26.7045 3.43701L7.09361 37.6292L6.82935 37.474L26.3521 3.43701H26.7045Z" fill="#E00018"/>
<path d="M27.0541 3.43701L7.35509 37.7844L7.09082 37.6292L26.7017 3.43701H27.0541Z" fill="#E10018"/>
<path d="M27.4088 3.43701L7.62169 37.9396L7.35742 37.7844L27.0564 3.43701H27.4088Z" fill="#E20018"/>
<path d="M27.7595 3.43701L7.88438 38.0948L7.62012 37.9396L27.4072 3.43701H27.7595Z" fill="#E30019"/>
<path d="M28.1142 3.43701L8.15099 38.25L7.88672 38.0948L27.7619 3.43701H28.1142Z" fill="#E40019"/>
<path d="M28.4638 3.43701L8.41246 38.3942L8.14819 38.2501L28.1114 3.43701H28.4638Z" fill="#E50019"/>
<path d="M28.8185 3.43701L8.67906 38.5494L8.41479 38.3942L28.4661 3.43701H28.8185Z" fill="#E50019"/>
<path d="M29.1685 3.43701L8.94103 38.7046L8.67676 38.5494L28.8162 3.43701H29.1685Z" fill="#E60019"/>
<path d="M60.4756 3.43701L60.5857 3.50353L40.2041 39.0372H9.51594L8.94336 38.7046L29.1709 3.43701H60.4756Z" fill="#E60019"/>
<path d="M60.5809 3.50354L60.7791 3.61441L40.4635 39.0372H40.1992L60.5809 3.50354Z" fill="#E60019"/>
<path d="M60.7824 3.61438L60.9806 3.73634L40.7311 39.0372H40.4668L60.7824 3.61438Z" fill="#E60019"/>
<path d="M60.9771 3.73633L61.1643 3.8472L40.9918 39.0372H40.7275L60.9771 3.73633Z" fill="#E60019"/>
<path d="M61.1673 3.84729L61.3655 3.95816L41.2591 39.0373H40.9949L61.1673 3.84729Z" fill="#E60019"/>
<path d="M61.3632 3.95813L61.5614 4.08009L41.5211 39.0373H41.2568L61.3632 3.95813Z" fill="#E50019"/>
<path d="M61.5638 4.08008L61.762 4.19095L41.7877 39.0373H41.5234L61.5638 4.08008Z" fill="#E50019"/>
<path d="M61.7593 4.19092L61.9575 4.30179L42.0493 39.0372H41.785L61.7593 4.19092Z" fill="#E50019"/>
<path d="M61.9602 4.30176L62.1584 4.42371L42.3163 39.0372H42.052L61.9602 4.30176Z" fill="#E50019"/>
<path d="M62.1557 4.42371L62.3539 4.53458L42.5779 39.0372H42.3136L62.1557 4.42371Z" fill="#E50019"/>
<path d="M62.3561 4.53467L62.5543 4.65662L42.8443 39.0373H42.5801L62.3561 4.53467Z" fill="#E40019"/>
<path d="M62.5518 4.65662L62.75 4.76749L43.1061 39.0373H42.8418L62.5518 4.65662Z" fill="#E40019"/>
<path d="M62.7533 4.76746L62.9515 4.87833L43.3736 39.0372H43.1094L62.7533 4.76746Z" fill="#E30019"/>
<path d="M62.9489 4.8783L63.1471 5.00025L43.6354 39.0372H43.3711L62.9489 4.8783Z" fill="#E30019"/>
<path d="M63.1492 5.00024L63.3474 5.11111L43.9017 39.0372H43.6375L63.1492 5.00024Z" fill="#E20018"/>
<path d="M63.3451 5.11121L63.5433 5.23316L44.1637 39.0373H43.8994L63.3451 5.11121Z" fill="#E20018"/>
<path d="M63.5457 5.23315L63.7439 5.34402L44.4303 39.0373H44.166L63.5457 5.23315Z" fill="#E10018"/>
<path d="M63.7413 5.34399L63.9395 5.45486L44.692 39.0373H44.4277L63.7413 5.34399Z" fill="#E10018"/>
<path d="M63.9417 5.45483L64.1399 5.57679L44.9585 39.0372H44.6942L63.9417 5.45483Z" fill="#E00018"/>
<path d="M64.1376 5.57678L64.3358 5.68765L45.2204 39.0372H44.9562L64.1376 5.57678Z" fill="#E00018"/>
<path d="M64.3382 5.68762L64.5364 5.79849L45.487 39.0372H45.2228L64.3382 5.68762Z" fill="#DF0018"/>
<path d="M64.5337 5.79846L64.7319 5.92042L45.7486 39.0372H45.4844L64.5337 5.79846Z" fill="#DE0018"/>
<path d="M64.7342 5.92053L64.9324 6.0314L46.0152 39.0373H45.751L64.7342 5.92053Z" fill="#DE0018"/>
<path d="M64.9309 6.03137L65.1291 6.15333L46.2779 39.0372H46.0137L64.9309 6.03137Z" fill="#DD0017"/>
<path d="M65.1314 6.15332L65.3296 6.26419L46.5445 39.0372H46.2803L65.1314 6.15332Z" fill="#DC0017"/>
<path d="M65.3268 6.26416L65.525 6.37503L46.806 39.0372H46.5417L65.3268 6.26416Z" fill="#DB0017"/>
<path d="M65.5273 6.375L65.7255 6.49696L47.0726 39.0372H46.8083L65.5273 6.375Z" fill="#DB0017"/>
<path d="M65.7232 6.49707L65.9214 6.60794L47.3346 39.0373H47.0703L65.7232 6.49707Z" fill="#DA0017"/>
<path d="M65.9238 6.60791L66.122 6.72987L47.5902 39.0373H47.3369L65.9238 6.60791Z" fill="#D90017"/>
<path d="M66.1197 6.72986L66.3179 6.84073L47.8522 39.0372H47.5879L66.1197 6.72986Z" fill="#D80016"/>
<path d="M66.3209 6.8407L66.5192 6.95157L48.1195 39.0372H47.8552L66.3209 6.8407Z" fill="#D70016"/>
<path d="M66.5168 6.95154L66.715 7.07349L48.3815 39.0372H48.1172L66.5168 6.95154Z" fill="#D60016"/>
<path d="M66.7174 7.07349L66.9156 7.18436L48.6481 39.0372H48.3838L66.7174 7.07349Z" fill="#D50016"/>
<path d="M66.9129 7.18445L67.1111 7.3064L48.9097 39.0373H48.6454L66.9129 7.18445Z" fill="#D40016"/>
<path d="M67.1137 7.3064L67.3119 7.41727L49.1765 39.0373H48.9122L67.1137 7.3064Z" fill="#D30016"/>
<path d="M67.3093 7.41724L67.3864 7.46158V7.74984L49.4382 39.0372H49.174L67.3093 7.41724Z" fill="#D30015"/>
<path d="M67.3886 8.20444L49.7047 39.0373H49.4404L67.3886 7.74988V8.20444Z" fill="#D10015"/>
<path d="M67.3861 8.67012L49.9664 39.0373H49.7021L67.3861 8.20447V8.67012Z" fill="#D00015"/>
<path d="M67.3894 9.12461L50.234 39.0372H49.9697L67.3894 8.67004V9.12461Z" fill="#CF0015"/>
<path d="M50.2314 39.0372L67.3868 9.12463V39.0372H50.2314Z" fill="#CF0015"/>
</g>
<mask id="mask1_97_796" style="mask-type:luminance" maskUnits="userSpaceOnUse" x="0" y="0" width="71" height="50">
<path d="M35.498 0.698486C16.2725 0.698486 0.680664 10.0891 0.680664 21.6861C0.680664 30.0789 8.81792 37.2965 20.5668 40.7002C21.6129 40.2346 22.7581 39.8133 24.0574 39.4585C11.3945 36.6424 2.83885 29.3804 2.83885 21.6861C2.83885 11.8631 16.812 2.74957 35.498 2.74957C54.1839 2.74957 68.1571 11.8741 68.1571 21.6861C68.1571 38.7378 33.1526 35.6446 20.6109 41.3987C15.9311 43.5163 14.6538 47.1307 14.6538 49.7139C19.3005 43.993 41.8734 45.5009 57.0689 38.3498C63.7857 35.1346 70.3043 29.192 70.3043 21.6861C70.3043 10.0891 54.7125 0.698486 35.498 0.698486Z" fill="white"/>
</mask>
<g mask="url(#mask1_97_796)">
<path d="M18.9592 0.698486L0.680664 32.5735V0.698486H18.9592Z" fill="#FDD121"/>
<path d="M19.4547 0.698486L0.680664 33.4494V32.5735L18.9592 0.698486H19.4547Z" fill="#FDD121"/>
<path d="M19.9612 0.698486L0.680664 34.3141V33.4494L19.4547 0.698486H19.9612Z" fill="#FDD01F"/>
<path d="M20.4567 0.698486L0.680664 35.19V34.3141L19.9612 0.698486H20.4567Z" fill="#FDCF1C"/>
<path d="M20.9522 0.698486L0.680664 36.0548V35.19L20.4567 0.698486H20.9522Z" fill="#FDCE1A"/>
<path d="M21.4587 0.698486L0.680664 36.9307V36.0548L20.9522 0.698486H21.4587Z" fill="#FCCD17"/>
<path d="M21.9542 0.698486L0.680664 37.7954V36.9307L21.4587 0.698486H21.9542Z" fill="#FCCC14"/>
<path d="M22.4497 0.698486L0.680664 38.6713V37.7954L21.9542 0.698486H22.4497Z" fill="#FCCB11"/>
<path d="M22.9562 0.698486L0.680664 39.5472V38.6713L22.4497 0.698486H22.9562Z" fill="#FCCA0E"/>
<path d="M23.4518 0.698486L0.680664 40.412V39.5472L22.9563 0.698486H23.4518Z" fill="#FCC80A"/>
<path d="M23.9473 0.698486L0.680664 41.2878V40.412L23.4517 0.698486H23.9473Z" fill="#FBC706"/>
<path d="M24.4538 0.698486L0.680664 42.1526V41.2878L23.9473 0.698486H24.4538Z" fill="#FBC602"/>
<path d="M24.9493 0.698486L0.680664 43.0285V42.1526L24.4538 0.698486H24.9493Z" fill="#FBC500"/>
<path d="M25.4448 0.698486L0.680664 43.8933V43.0285L24.9493 0.698486H25.4448Z" fill="#FBC400"/>
<path d="M25.9513 0.698486L0.680664 44.7691V43.8933L25.4448 0.698486H25.9513Z" fill="#FBC300"/>
<path d="M26.4468 0.698486L0.680664 45.6339V44.7691L25.9513 0.698486H26.4468Z" fill="#FBC200"/>
<path d="M26.9423 0.698486L0.977965 45.9776L0.680664 45.8002V45.6339L26.4468 0.698486H26.9423Z" fill="#FAC100"/>
<path d="M27.4494 0.698486L1.3529 46.1994L0.978516 45.9776L26.9428 0.698486H27.4494Z" fill="#FAC000"/>
<path d="M27.9424 0.698486L1.72484 46.4211L1.35046 46.1994L27.4469 0.698486H27.9424Z" fill="#FABF00"/>
<path d="M28.4406 0.698486L2.10192 46.6317L1.72754 46.4211L27.9451 0.698486H28.4406Z" fill="#FABE00"/>
<path d="M28.944 0.698486L2.47313 46.8535L2.09875 46.6318L28.4375 0.698486H28.944Z" fill="#FABD00"/>
<path d="M29.4418 0.698486L2.84984 47.0641L2.47546 46.8535L28.9463 0.698486H29.4418Z" fill="#FABD00"/>
<path d="M29.9398 0.698486L3.22667 47.2859L2.85229 47.0641L29.4443 0.698486H29.9398Z" fill="#F9BC00"/>
<path d="M30.4435 0.698486L3.59826 47.5076L3.22388 47.2859L29.937 0.698486H30.4435Z" fill="#F9BB00"/>
<path d="M30.9413 0.698486L3.97497 47.7183L3.60059 47.5076L30.4458 0.698486H30.9413Z" fill="#F9BA00"/>
<path d="M31.4335 0.698486L4.34606 47.94L3.97168 47.7183L30.938 0.698486H31.4335Z" fill="#F9B900"/>
<path d="M31.9426 0.698486L4.72301 48.1617L4.34863 47.94L31.4361 0.698486H31.9426Z" fill="#F9B800"/>
<path d="M32.4356 0.698486L5.09484 48.3724L4.72046 48.1617L31.9401 0.698486H32.4356Z" fill="#F9B800"/>
<path d="M32.9339 0.698486L5.47204 48.5941L5.09766 48.3724L32.4384 0.698486H32.9339Z" fill="#F9B700"/>
<path d="M33.4371 0.698486L5.84313 48.8159L5.46875 48.5941L32.9306 0.698486H33.4371Z" fill="#F8B600"/>
<path d="M33.9351 0.698486L6.21996 49.0265L5.84558 48.8159L33.4396 0.698486H33.9351Z" fill="#F8B500"/>
<path d="M34.4384 0.698486L6.59118 49.2483L6.2168 49.0265L33.9319 0.698486H34.4384Z" fill="#F8B500"/>
<path d="M34.9364 0.698486L6.96801 49.4589L6.59363 49.2483L34.4409 0.698486H34.9364Z" fill="#F8B400"/>
<path d="M35.4344 0.698486L7.35597 49.6807L6.97058 49.4589L34.9389 0.698486H35.4344Z" fill="#F8B300"/>
<path d="M35.9376 0.698486L7.82614 49.7139H7.40772L7.35266 49.6807L35.4311 0.698486H35.9376Z" fill="#F8B300"/>
<path d="M36.4361 0.698486L8.3246 49.7139H7.8291L35.9406 0.698486H36.4361Z" fill="#F8B200"/>
<path d="M36.9273 0.698486L8.82683 49.7139H8.32031L36.4318 0.698486H36.9273Z" fill="#F8B200"/>
<path d="M37.4353 0.698486L9.32375 49.7139H8.82825L36.9287 0.698486H37.4353Z" fill="#F8B100"/>
<path d="M37.9324 0.698486L9.83195 49.7139H9.32544L37.4369 0.698486H37.9324Z" fill="#F7B100"/>
<path d="M38.429 0.698486L10.3285 49.7139H9.83301L37.9335 0.698486H38.429Z" fill="#F7B000"/>
<path d="M38.9322 0.698486L10.8207 49.7139H10.3252L38.4257 0.698486H38.9322Z" fill="#F7B000"/>
<path d="M39.4293 0.698486L11.3288 49.7139H10.8223L38.9338 0.698486H39.4293Z" fill="#F7AF00"/>
<path d="M39.9261 0.698486L11.8256 49.7139H11.3301L39.4306 0.698486H39.9261Z" fill="#F7AF00"/>
<path d="M40.4285 0.698486L12.317 49.7139H11.8215L39.922 0.698486H40.4285Z" fill="#F7AE00"/>
<path d="M40.9254 0.698486L12.8249 49.7139H12.3184L40.4299 0.698486H40.9254Z" fill="#F7AE00"/>
<path d="M41.4219 0.698486L13.3214 49.7139H12.8259L40.9264 0.698486H41.4219Z" fill="#F7AE00"/>
<path d="M41.9304 0.698486L13.8189 49.7139H13.3234L41.4239 0.698486H41.9304Z" fill="#F7AE00"/>
<path d="M42.4222 0.698486L14.3217 49.7139H13.8152L41.9267 0.698486H42.4222Z" fill="#F7AD00"/>
<path d="M42.9192 0.698486L14.8187 49.7139H14.3232L42.4237 0.698486H42.9192Z" fill="#F7AD00"/>
<path d="M43.075 0.698486L14.9635 49.7139H14.8203L42.9208 0.698486H43.075Z" fill="#F7AD00"/>
<path d="M43.2156 0.698486L15.1151 49.7139H14.9609L43.0724 0.698486H43.2156Z" fill="#F7AE00"/>
<path d="M43.3619 0.698486L15.2614 49.7139H15.1183L43.2188 0.698486H43.3619Z" fill="#F7AE00"/>
<path d="M43.5144 0.698486L15.4029 49.7139H15.2598L43.3603 0.698486H43.5144Z" fill="#F7AE00"/>
<path d="M43.655 0.698486L15.5435 49.7139H15.4004L43.5119 0.698486H43.655Z" fill="#F7AE00"/>
<path d="M43.8015 0.698486L15.701 49.7139H15.5469L43.6584 0.698486H43.8015Z" fill="#F7AF00"/>
<path d="M43.9427 0.698486L15.8422 49.7139H15.6991L43.7996 0.698486H43.9427Z" fill="#F7AF00"/>
<path d="M44.1002 0.698486L15.9887 49.7139H15.8456L43.9461 0.698486H44.1002Z" fill="#F7AF00"/>
<path d="M44.242 0.698486L16.1415 49.7139H15.9873L44.0988 0.698486H44.242Z" fill="#F7AF00"/>
<path d="M44.3823 0.698486L16.2818 49.7139H16.1387L44.2392 0.698486H44.3823Z" fill="#F7B000"/>
<path d="M44.5398 0.698486L16.4283 49.7139H16.2852L44.3857 0.698486H44.5398Z" fill="#F7B000"/>
<path d="M44.6813 0.698486L16.5808 49.7139H16.4266L44.5381 0.698486H44.6813Z" fill="#F7B100"/>
<path d="M44.8219 0.698486L16.7214 49.7139H16.5782L44.6787 0.698486H44.8219Z" fill="#F8B100"/>
<path d="M44.9794 0.698486L16.8679 49.7139H16.7247L44.8252 0.698486H44.9794Z" fill="#F8B100"/>
<path d="M45.1206 0.698486L17.0091 49.7139H16.866L44.9775 0.698486H45.1206Z" fill="#F8B200"/>
<path d="M45.2672 0.698486L17.1667 49.7139H17.0126L45.1241 0.698486H45.2672Z" fill="#F8B200"/>
<path d="M45.4077 0.698486L17.3072 49.7139H17.1641L45.2646 0.698486H45.4077Z" fill="#F8B300"/>
<path d="M45.5602 0.698486L17.4487 49.7139H17.3055L45.406 0.698486H45.5602Z" fill="#F8B300"/>
<path d="M45.7068 0.698486L17.6063 49.7139H17.4521L45.5637 0.698486H45.7068Z" fill="#F8B400"/>
<path d="M45.8472 0.698486L17.7467 49.7139H17.6035L45.704 0.698486H45.8472Z" fill="#F8B400"/>
<path d="M46.0047 0.698486L17.8931 49.7139H17.75L45.8505 0.698486H46.0047Z" fill="#F8B500"/>
<path d="M46.1464 0.698486L18.0459 49.7139H17.8917L46.0032 0.698486H46.1464Z" fill="#F8B500"/>
<path d="M46.2866 0.698486L18.1861 49.7139H18.043L46.1435 0.698486H46.2866Z" fill="#F8B600"/>
<path d="M46.4451 0.698486L18.3336 49.7139H18.1904L46.2909 0.698486H46.4451Z" fill="#F8B600"/>
<path d="M46.5867 0.698486L18.4752 49.7139H18.332L46.4435 0.698486H46.5867Z" fill="#F9B700"/>
<path d="M46.7272 0.698486L18.6267 49.7139H18.4725L46.584 0.698486H46.7272Z" fill="#F9B700"/>
<path d="M46.8735 0.698486L18.773 49.7139H18.6299L46.7304 0.698486H46.8735Z" fill="#F9B800"/>
<path d="M47.0252 0.698486L18.9137 49.7139H18.7705L46.871 0.698486H47.0252Z" fill="#F9B800"/>
<path d="M47.1716 0.698486L19.0711 49.7139H18.917L47.0285 0.698486H47.1716Z" fill="#F9B900"/>
<path d="M47.313 0.698486L19.2125 49.7139H19.0693L47.1698 0.698486H47.313Z" fill="#F9BA03"/>
<path d="M47.4646 0.698486L19.3531 49.7139H19.21L47.3105 0.698486H47.4646Z" fill="#F9BA07"/>
<path d="M47.6111 0.698486L19.5106 49.7139H19.3564L47.468 0.698486H47.6111Z" fill="#F9BB0B"/>
<path d="M47.7523 0.698486L19.6518 49.7139H19.5087L47.6092 0.698486H47.7523Z" fill="#F9BB0F"/>
<path d="M47.9098 0.698486L19.7983 49.7139H19.6552L47.7556 0.698486H47.9098Z" fill="#F9BC12"/>
<path d="M48.0515 0.698486L19.94 49.7139H19.7969L47.9084 0.698486H48.0515Z" fill="#F9BC14"/>
<path d="M48.1924 0.698486L20.0919 49.7139H19.9377L48.0493 0.698486H48.1924Z" fill="#F9BD17"/>
<path d="M48.3384 0.698486L20.2379 49.7139H20.0947L48.1952 0.698486H48.3384Z" fill="#FABE19"/>
<path d="M48.491 0.698486L20.3795 49.7139H20.2363L48.3368 0.698486H48.491Z" fill="#FABE1C"/>
<path d="M48.6316 0.698486L20.5311 49.7139H20.377L48.4885 0.698486H48.6316Z" fill="#FABF1E"/>
<path d="M48.7779 0.698486L20.6774 49.7139H20.5343L48.6348 0.698486H48.7779Z" fill="#FABF20"/>
<path d="M48.9302 0.698486L20.8187 49.7139H20.6755L48.776 0.698486H48.9302Z" fill="#FAC022"/>
<path d="M49.0768 0.698486L20.9763 49.7139H20.8221L48.9337 0.698486H49.0768Z" fill="#FAC124"/>
<path d="M49.2175 0.698486L21.117 49.7139H20.9739L49.0744 0.698486H49.2175Z" fill="#FAC126"/>
<path d="M49.3698 0.698486L21.2583 49.7139H21.1151L49.2156 0.698486H49.3698Z" fill="#FAC227"/>
<path d="M49.5164 0.698486L21.4049 49.7139H21.2617L49.3732 0.698486H49.5164Z" fill="#FAC229"/>
<path d="M49.658 0.698486L21.5575 49.7139H21.4033L49.5148 0.698486H49.658Z" fill="#FAC32B"/>
<path d="M49.8032 0.698486L21.7027 49.7139H21.5596L49.6601 0.698486H49.8032Z" fill="#FBC42D"/>
<path d="M49.9556 0.698486L21.8441 49.7139H21.7009L49.8014 0.698486H49.9556Z" fill="#FBC42E"/>
<path d="M50.0974 0.698486L21.9969 49.7139H21.8428L49.9543 0.698486H50.0974Z" fill="#FBC530"/>
<path d="M50.2427 0.698486L22.1422 49.7139H21.999L50.0995 0.698486H50.2427Z" fill="#FBC632"/>
<path d="M50.3954 0.698486L22.2839 49.7139H22.1407L50.2412 0.698486H50.3954Z" fill="#FBC634"/>
<path d="M50.5368 0.698486L22.4363 49.7139H22.2821L50.3936 0.698486H50.5368Z" fill="#FBC735"/>
<path d="M50.6831 0.698486L22.5826 49.7139H22.4395L50.54 0.698486H50.6831Z" fill="#FBC837"/>
<path d="M50.8347 0.698486L22.7232 49.7139H22.5801L50.6806 0.698486H50.8347Z" fill="#FBC838"/>
<path d="M50.9812 0.698486L22.8697 49.7139H22.7266L50.8381 0.698486H50.9812Z" fill="#FBC93A"/>
<path d="M51.1228 0.698486L23.0223 49.7139H22.8682L50.9797 0.698486H51.1228Z" fill="#FCCA3C"/>
<path d="M51.2632 0.698486L23.1627 49.7139H23.0195L51.12 0.698486H51.2632Z" fill="#FCCA3D"/>
<path d="M51.4207 0.698486L23.3092 49.7139H23.166L51.2665 0.698486H51.4207Z" fill="#FCCB3F"/>
<path d="M51.5624 0.698486L23.4619 49.7139H23.3077L51.4192 0.698486H51.5624Z" fill="#FCCC40"/>
<path d="M51.7084 0.698486L23.6079 49.7139H23.4647L51.5652 0.698486H51.7084Z" fill="#FCCD42"/>
<path d="M51.8601 0.698486L23.7486 49.7139H23.6055L51.706 0.698486H51.8601Z" fill="#FCCD44"/>
<path d="M52.002 0.698486L23.9015 49.7139H23.7473L51.8588 0.698486H52.002Z" fill="#FCCE45"/>
<path d="M52.1479 0.698486L24.0474 49.7139H23.9043L52.0048 0.698486H52.1479Z" fill="#FCCF47"/>
<path d="M52.3006 0.698486L24.189 49.7139H24.0459L52.1464 0.698486H52.3006Z" fill="#FCCF48"/>
<path d="M52.447 0.698486L24.3355 49.7139H24.1924L52.3039 0.698486H52.447Z" fill="#FDD04A"/>
<path d="M52.5877 0.698486L24.4872 49.7139H24.333L52.4445 0.698486H52.5877Z" fill="#FDD14B"/>
<path d="M52.7287 0.698486L24.6283 49.7139H24.4851L52.5856 0.698486H52.7287Z" fill="#FDD14D"/>
<path d="M52.8862 0.698486L24.7747 49.7139H24.6316L52.7321 0.698486H52.8862Z" fill="#FDD24E"/>
<path d="M53.0281 0.698486L24.9276 49.7139H24.7734L52.8849 0.698486H53.0281Z" fill="#FDD350"/>
<path d="M53.1683 0.698486L25.0678 49.7139H24.9247L53.0252 0.698486H53.1683Z" fill="#FDD452"/>
<path d="M53.3258 0.698486L25.2143 49.7139H25.0712L53.1717 0.698486H53.3258Z" fill="#FDD453"/>
<path d="M53.4675 0.698486L25.367 49.7139H25.2129L53.3244 0.698486H53.4675Z" fill="#FDD555"/>
<path d="M53.6128 0.698486L25.5123 49.7139H25.3691L53.4696 0.698486H53.6128Z" fill="#FDD656"/>
<path d="M53.7655 0.698486L25.654 49.7139H25.5109L53.6114 0.698486H53.7655Z" fill="#FED758"/>
<path d="M53.907 0.698486L25.7955 49.7139H25.6523L53.7639 0.698486H53.907Z" fill="#FED75A"/>
<path d="M54.0532 0.698486L25.9527 49.7139H25.7986L53.9101 0.698486H54.0532Z" fill="#FED85B"/>
<path d="M54.194 0.698486L26.0935 49.7139H25.9503L54.0508 0.698486H54.194Z" fill="#FED95D"/>
<path d="M54.3516 0.698486L26.2401 49.7139H26.0969L54.1974 0.698486H54.3516Z" fill="#FEDA5E"/>
<path d="M54.4928 0.698486L26.3923 49.7139H26.2382L54.3497 0.698486H54.4928Z" fill="#FEDA60"/>
<path d="M55.1178 0.698486L27.0063 49.7139H26.3896L54.4901 0.698486H55.1178Z" fill="#FEDA60"/>
<path d="M55.7359 0.698486L27.6354 49.7139H27.0078L55.1193 0.698486H55.7359Z" fill="#FEDD64"/>
<path d="M56.3639 0.698486L28.2524 49.7139H27.6357L55.7362 0.698486H56.3639Z" fill="#FFDF67"/>
<path d="M56.9811 0.698486L28.8806 49.7139H28.2529L56.3644 0.698486H56.9811Z" fill="#FFE169"/>
<path d="M57.6089 0.698486L29.5084 49.7139H28.8807L56.9812 0.698486H57.6089Z" fill="#FFE26A"/>
<path d="M58.2368 0.698486L30.1253 49.7139H29.5087L57.6092 0.698486H58.2368Z" fill="#FFE36B"/>
<path d="M58.8544 0.698486L30.7539 49.7139H30.1262L58.2377 0.698486H58.8544Z" fill="#FFE36C"/>
<path d="M59.4823 0.698486L31.3708 49.7139H30.7542L58.8546 0.698486H59.4823Z" fill="#FFE36C"/>
<path d="M60.0946 0.698486L31.9941 49.7139H31.3665L59.478 0.698486H60.0946Z" fill="#FFE36D"/>
<path d="M60.7225 0.698486L32.611 49.7139H31.9944L60.0949 0.698486H60.7225Z" fill="#FFE46D"/>
<path d="M61.3404 0.698486L33.2399 49.7139H32.6123L60.7238 0.698486H61.3404Z" fill="#FFE46D"/>
<path d="M61.9684 0.698486L33.8679 49.7139H33.2402L61.3407 0.698486H61.9684Z" fill="#FFE46D"/>
<path d="M61.9687 0.698486L62.4311 0.97566L34.4848 49.7139H33.8682L61.9687 0.698486Z" fill="#FFE46D"/>
<path d="M62.4317 0.975708L62.5418 1.03114L34.6285 49.714H34.4854L62.4317 0.975708Z" fill="#FFE46D"/>
<path d="M62.5403 1.03113L62.6504 1.09765L34.7701 49.7139H34.627L62.5403 1.03113Z" fill="#FFE36C"/>
<path d="M62.6537 1.09766L62.7638 1.16418L34.9166 49.714H34.7734L62.6537 1.09766Z" fill="#FFE36A"/>
<path d="M62.7613 1.16418L62.8604 1.21962L35.0572 49.714H34.9141L62.7613 1.16418Z" fill="#FFE269"/>
<path d="M62.8587 1.2196L62.9688 1.28613L35.1987 49.7139H35.0555L62.8587 1.2196Z" fill="#FFE268"/>
<path d="M62.9723 1.28613L63.0824 1.35265L35.3453 49.714H35.2021L62.9723 1.28613Z" fill="#FFE167"/>
<path d="M63.0809 1.35266L63.191 1.4081L35.4869 49.714H35.3438L63.0809 1.35266Z" fill="#FFE166"/>
<path d="M63.1885 1.40808L63.2876 1.4746L35.6275 49.7139H35.4844L63.1885 1.40808Z" fill="#FFE065"/>
<path d="M63.2909 1.47461L63.401 1.53004L35.774 49.714H35.6309L63.2909 1.47461Z" fill="#FFE063"/>
<path d="M63.3995 1.53003L63.5096 1.59655L35.9156 49.7139H35.7725L63.3995 1.53003Z" fill="#FFE062"/>
<path d="M63.508 1.59656L63.6182 1.66308L36.0572 49.714H35.9141L63.508 1.59656Z" fill="#FFDF61"/>
<path d="M63.6213 1.66309L63.7204 1.71852L36.2034 49.714H36.0603L63.6213 1.66309Z" fill="#FFDF60"/>
<path d="M63.7181 1.71851L63.8282 1.78503L36.3443 49.7139H36.2012L63.7181 1.71851Z" fill="#FFDE5F"/>
<path d="M63.8315 1.78503L63.9416 1.85156L36.4908 49.714H36.3477L63.8315 1.78503Z" fill="#FFDE5D"/>
<path d="M63.9402 1.85156L64.0393 1.907L36.6325 49.714H36.4894L63.9402 1.85156Z" fill="#FFDD5C"/>
<path d="M64.0375 1.90698L64.1476 1.9735L36.7739 49.7139H36.6307L64.0375 1.90698Z" fill="#FFDD5B"/>
<path d="M64.151 1.97351L64.2611 2.02895L36.9204 49.7139H36.7772L64.151 1.97351Z" fill="#FFDC5A"/>
<path d="M64.2587 2.02893L64.3688 2.09545L37.0611 49.7139H36.918L64.2587 2.02893Z" fill="#FEDC59"/>
<path d="M64.3675 2.09546L64.4666 2.16198L37.203 49.7139H37.0598L64.3675 2.09546Z" fill="#FEDC57"/>
<path d="M64.4697 2.16199L64.5798 2.21742L37.3492 49.7139H37.2061L64.4697 2.16199Z" fill="#FEDB56"/>
<path d="M64.5785 2.21741L64.6886 2.28393L37.491 49.7139H37.3479L64.5785 2.21741Z" fill="#FEDB55"/>
<path d="M64.6868 2.28394L64.7969 2.35046L37.6324 49.7139H37.4893L64.6868 2.28394Z" fill="#FEDA54"/>
<path d="M64.8003 2.35046L64.8994 2.4059L37.7789 49.7139H37.6357L64.8003 2.35046Z" fill="#FEDA53"/>
<path d="M64.8969 2.40588L65.007 2.47241L37.9195 49.7139H37.7764L64.8969 2.40588Z" fill="#FED951"/>
<path d="M65.0054 2.47241L65.1155 2.52785L38.0611 49.7139H37.918L65.0054 2.47241Z" fill="#FED950"/>
<path d="M65.1189 2.52783L65.229 2.59435L38.2076 49.7139H38.0645L65.1189 2.52783Z" fill="#FED94F"/>
<path d="M65.2275 2.59436L65.3266 2.66088L38.3492 49.7139H38.2061L65.2275 2.59436Z" fill="#FED84E"/>
<path d="M65.3297 2.66089L65.4398 2.71632L38.4954 49.7139H38.3523L65.3297 2.66089Z" fill="#FED84C"/>
<path d="M65.4375 2.71631L65.5476 2.78283L38.6363 49.7139H38.4932L65.4375 2.71631Z" fill="#FED74B"/>
<path d="M65.5462 2.78284L65.6563 2.84936L38.778 49.7139H38.6349L65.5462 2.78284Z" fill="#FED74A"/>
<path d="M65.6596 2.84937L65.7587 2.9048L38.9245 49.7139H38.7814L65.6596 2.84937Z" fill="#FED649"/>
<path d="M65.7571 2.90479L65.8672 2.97131L39.066 49.7139H38.9229L65.7571 2.90479Z" fill="#FED647"/>
<path d="M65.8656 2.97131L65.9757 3.02675L39.2076 49.7139H39.0645L65.8656 2.97131Z" fill="#FED546"/>
<path d="M65.9791 3.02673L66.0892 3.09326L39.3541 49.7139H39.2109L65.9791 3.02673Z" fill="#FED545"/>
<path d="M66.0867 3.09326L66.1858 3.15978L39.4947 49.7139H39.3516L66.0867 3.09326Z" fill="#FDD543"/>
<path d="M66.1841 3.15979L66.2942 3.21523L39.6362 49.7139H39.493L66.1841 3.15979Z" fill="#FDD442"/>
<path d="M66.2977 3.21521L66.4078 3.28173L39.7828 49.7139H39.6396L66.2977 3.21521Z" fill="#FDD441"/>
<path d="M66.4062 3.28174L66.5053 3.33717L39.9244 49.7139H39.7812L66.4062 3.28174Z" fill="#FDD33F"/>
<path d="M66.5028 3.33716L66.6129 3.40368L40.065 49.7139H39.9219L66.5028 3.33716Z" fill="#FDD33E"/>
<path d="M66.6163 3.40369L66.7264 3.47021L40.2115 49.7139H40.0684L66.6163 3.40369Z" fill="#FDD23D"/>
<path d="M66.7248 3.47021L66.835 3.52565L40.3531 49.7139H40.21L66.7248 3.47021Z" fill="#FDD23B"/>
<path d="M66.8334 3.52563L66.9325 3.59216L40.4947 49.7139H40.3516L66.8334 3.52563Z" fill="#FDD13A"/>
<path d="M66.9356 3.59216L67.0457 3.65868L40.6409 49.7139H40.4978L66.9356 3.59216Z" fill="#FDD138"/>
<path d="M67.0434 3.65869L67.1536 3.71413L40.7818 49.7139H40.6387L67.0434 3.65869Z" fill="#FDD137"/>
<path d="M67.1569 3.71411L67.267 3.78063L40.9283 49.7139H40.7852L67.1569 3.71411Z" fill="#FDD035"/>
<path d="M67.2656 3.78064L67.3647 3.83607L41.07 49.7139H40.9269L67.2656 3.78064Z" fill="#FDD034"/>
<path d="M67.3629 3.83606L67.473 3.90258L41.2114 49.7139H41.0682L67.3629 3.83606Z" fill="#FDCF32"/>
<path d="M67.4763 3.90259L67.5865 3.96911L41.3579 49.7139H41.2147L67.4763 3.90259Z" fill="#FDCF31"/>
<path d="M67.5841 3.96912L67.6942 4.02455L41.4986 49.7139H41.3555L67.5841 3.96912Z" fill="#FDCE2F"/>
<path d="M67.6929 4.02454L67.792 4.09106L41.6405 49.7139H41.4973L67.6929 4.02454Z" fill="#FDCE2E"/>
<path d="M67.7951 4.09106L67.9052 4.15759L41.7757 49.7139H41.6436L67.7951 4.09106Z" fill="#FCCE2C"/>
<path d="M67.9038 4.15759L68.0139 4.21303L41.9174 49.7139H41.7743L67.9038 4.15759Z" fill="#FCCD2A"/>
<path d="M68.0124 4.21301L68.1225 4.27953L42.059 49.7139H41.9159L68.0124 4.21301Z" fill="#FCCD28"/>
<path d="M68.1259 4.27954L68.225 4.33498L42.2056 49.7139H42.0625L68.1259 4.27954Z" fill="#FCCC27"/>
<path d="M68.2235 4.33496L68.3336 4.40148L42.3472 49.7139H42.2041L68.2235 4.33496Z" fill="#FCCC25"/>
<path d="M68.3311 4.40149L68.4412 4.46801L42.4879 49.7139H42.3447L68.3311 4.40149Z" fill="#FCCB23"/>
<path d="M68.4445 4.46802L68.5546 4.52345L42.6344 49.7139H42.4912L68.4445 4.46802Z" fill="#FCCB21"/>
<path d="M68.5531 4.52344L68.6522 4.58996L42.776 49.7139H42.6328L68.5531 4.52344Z" fill="#FCCA1F"/>
<path d="M68.6507 4.58997L68.7608 4.65649L42.9176 49.7139H42.7744L68.6507 4.58997Z" fill="#FCCA1C"/>
<path d="M68.7641 4.65649L68.8742 4.71193L43.064 49.7139H42.9209L68.7641 4.65649Z" fill="#FCCA1A"/>
<path d="M68.8717 4.71204L68.9818 4.77856L43.2047 49.714H43.0615L68.8717 4.71204Z" fill="#FCC918"/>
<path d="M68.9804 4.77844L69.0795 4.83388L43.3464 49.7139H43.2032L68.9804 4.77844Z" fill="#FCC915"/>
<path d="M69.0828 4.83386L69.1929 4.90038L43.4929 49.7139H43.3497L69.0828 4.83386Z" fill="#FCC812"/>
<path d="M69.191 4.90039L69.3011 4.96691L43.6341 49.7139H43.491L69.191 4.90039Z" fill="#FCC80E"/>
<path d="M69.3046 4.96692L69.4037 5.02235L43.7807 49.7139H43.6376L69.3046 4.96692Z" fill="#FBC70A"/>
<path d="M69.4023 5.02246L69.5124 5.08898L43.9224 49.714H43.7793L69.4023 5.02246Z" fill="#FBC706"/>
<path d="M69.5101 5.08887L69.6202 5.15539L44.0633 49.7139H43.9202L69.5101 5.08887Z" fill="#FBC601"/>
<path d="M69.6236 5.1554L69.7337 5.21083L44.2098 49.7139H44.0667L69.6236 5.1554Z" fill="#FBC600"/>
<path d="M69.7316 5.21094L69.8307 5.27746L44.3509 49.714H44.2078L69.7316 5.21094Z" fill="#FBC600"/>
<path d="M69.8294 5.27734L69.9396 5.33278L44.4928 49.7139H44.3496L69.8294 5.27734Z" fill="#FBC500"/>
<path d="M69.9429 5.33276L70.053 5.39929L44.6392 49.7138H44.4961L69.9429 5.33276Z" fill="#FBC500"/>
<path d="M70.0515 5.39941L70.1616 5.46594L44.7808 49.714H44.6377L70.0515 5.39941Z" fill="#FBC400"/>
<path d="M70.1591 5.46594L70.2582 5.52138L44.9215 49.714H44.7783L70.1591 5.46594Z" fill="#FBC400"/>
<path d="M70.2615 5.52136L70.3055 5.54354V5.70984L45.068 49.714H44.9248L70.2615 5.52136Z" fill="#FBC300"/>
<path d="M70.304 5.95375L45.2096 49.714H45.0664L70.304 5.70984V5.95375Z" fill="#FBC300"/>
<path d="M70.3015 6.20874L45.3502 49.714H45.207L70.3015 5.95374V6.20874Z" fill="#FBC200"/>
<path d="M70.3048 6.45265L45.4967 49.714H45.3535L70.3048 6.20874V6.45265Z" fill="#FBC200"/>
<path d="M70.3034 6.70764L45.6384 49.7139H45.4952L70.3034 6.45264V6.70764Z" fill="#FAC200"/>
<path d="M70.3067 6.95155L45.7849 49.7139H45.6417L70.3067 6.70764V6.95155Z" fill="#FAC100"/>
<path d="M70.3049 7.20654L45.9262 49.7139H45.7831L70.3049 6.95154V7.20654Z" fill="#FAC100"/>
<path d="M70.3035 7.45046L46.068 49.7139H45.9248L70.3035 7.20654V7.45046Z" fill="#FAC000"/>
<path d="M70.3069 7.70544L46.2144 49.7139H46.0713L70.3069 7.45044V7.70544Z" fill="#FAC000"/>
<path d="M70.3042 7.94936L46.3549 49.7139H46.2118L70.3042 7.70544V7.94936Z" fill="#FABF00"/>
<path d="M70.3027 8.20434L46.4965 49.7139H46.3534L70.3027 7.94934V8.20434Z" fill="#FABF00"/>
<path d="M70.3061 8.44826L46.6431 49.7139H46.5L70.3061 8.20435V8.44826Z" fill="#FABE00"/>
<path d="M70.3046 8.70324L46.7847 49.7139H46.6416L70.3046 8.44824V8.70324Z" fill="#FABE00"/>
<path d="M70.3021 8.94716L46.9254 49.7139H46.7822L70.3021 8.70325V8.94716Z" fill="#FABE00"/>
<path d="M70.3054 9.20214L47.0719 49.7139H46.9287L70.3054 8.94714V9.20214Z" fill="#FABD00"/>
<path d="M70.3039 9.44606L47.2135 49.7139H47.0703L70.3039 9.20215V9.44606Z" fill="#FABD00"/>
<path d="M47.2119 49.7139L70.3023 9.44604V49.7139H47.2119Z" fill="#FABD00"/>
</g>
<mask id="mask2_97_796" style="mask-type:luminance" maskUnits="userSpaceOnUse" x="0" y="21" width="25" height="20">
<path d="M20.5668 40.7002C21.6129 40.2345 22.7581 39.8132 24.0574 39.4584C11.3945 36.6423 2.83885 29.3804 2.83885 21.686H0.680664C0.680664 30.0789 8.81792 37.2965 20.5668 40.7002Z" fill="white"/>
</mask>
<g mask="url(#mask2_97_796)">
<path d="M9.46758 21.686L0.779765 36.8308L0.680664 36.7754V21.686H9.46758Z" fill="#FDD121"/>
<path d="M9.72036 21.686L0.966487 36.9417L0.779297 36.8308L9.46711 21.686H9.72036Z" fill="#FDD121"/>
<path d="M9.97588 21.686L1.15594 37.0526L0.96875 36.9417L9.72263 21.686H9.97588Z" fill="#FDD01E"/>
<path d="M10.0814 21.686L10.1805 21.7415L1.33856 37.1634L1.15137 37.0526L9.97131 21.686H10.0814Z" fill="#FDCF1B"/>
<path d="M10.1877 21.751L1.3457 37.1711L1.53642 37.282L10.3784 21.8619L10.1877 21.751Z" fill="#FDCE17"/>
<path d="M10.3644 21.8594L1.52246 37.2795L1.71318 37.3904L10.5551 21.9703L10.3644 21.8594Z" fill="#FCCD14"/>
<path d="M10.5588 21.9527L1.7168 37.3728L1.90752 37.4837L10.7495 22.0635L10.5588 21.9527Z" fill="#FCCC0F"/>
<path d="M10.7471 22.0665L1.90515 37.4867L2.09587 37.5976L10.9378 22.1774L10.7471 22.0665Z" fill="#FCCB0A"/>
<path d="M10.9355 22.1806L2.09351 37.6007L2.28423 37.7116L11.1262 22.2914L10.9355 22.1806Z" fill="#FCCA05"/>
<path d="M11.1242 22.2833L2.28223 37.7035L2.47294 37.8144L11.3149 22.3942L11.1242 22.2833Z" fill="#FCC900"/>
<path d="M11.3176 22.3974L2.47559 37.8175L2.6663 37.9284L11.5083 22.5082L11.3176 22.3974Z" fill="#FCC700"/>
<path d="M11.5059 22.5112L2.66394 37.9314L2.85466 38.0423L11.6966 22.6221L11.5059 22.5112Z" fill="#FBC600"/>
<path d="M11.6835 22.6196L2.84155 38.0398L3.03227 38.1507L11.8742 22.7305L11.6835 22.6196Z" fill="#FBC500"/>
<path d="M11.8722 22.7226L3.03027 38.1427L3.22099 38.2536L12.063 22.8334L11.8722 22.7226Z" fill="#FBC400"/>
<path d="M12.0606 22.8364L3.21863 38.2566L3.40935 38.3675L12.2513 22.9473L12.0606 22.8364Z" fill="#FBC300"/>
<path d="M12.2489 22.9505L3.40698 38.3706L3.5977 38.4815L12.4397 23.0613L12.2489 22.9505Z" fill="#FBC300"/>
<path d="M12.4377 23.0643L3.5957 38.4845L3.78642 38.5954L12.6284 23.1752L12.4377 23.0643Z" fill="#FAC200"/>
<path d="M12.6359 23.1576L3.79395 38.5778L3.98466 38.6886L12.8266 23.2685L12.6359 23.1576Z" fill="#FAC100"/>
<path d="M12.8246 23.2716L3.98267 38.6918L4.17339 38.8026L13.0154 23.3825L12.8246 23.2716Z" fill="#FAC000"/>
<path d="M13.013 23.3855L4.17102 38.8057L4.36174 38.9165L13.2037 23.4964L13.013 23.3855Z" fill="#FABF00"/>
<path d="M13.1916 23.4939L4.34961 38.9141L4.54033 39.0249L13.3823 23.6048L13.1916 23.4939Z" fill="#FABE00"/>
<path d="M13.3793 23.5968L4.53735 39.017L4.72807 39.1278L13.57 23.7077L13.3793 23.5968Z" fill="#FABD00"/>
<path d="M13.5677 23.7107L4.72571 39.1309L4.91643 39.2417L13.7584 23.8216L13.5677 23.7107Z" fill="#FABD00"/>
<path d="M13.756 23.8246L4.91406 39.2448L5.10478 39.3556L13.9467 23.9355L13.756 23.8246Z" fill="#F9BC00"/>
<path d="M13.9444 23.9386L5.10242 39.3588L5.29314 39.4696L14.1351 24.0495L13.9444 23.9386Z" fill="#F9BB00"/>
<path d="M14.1381 24.0415L5.29614 39.4617L5.48686 39.5725L14.3288 24.1524L14.1381 24.0415Z" fill="#F9BB00"/>
<path d="M14.3265 24.1554L5.4845 39.5756L5.67521 39.6864L14.5172 24.2663L14.3265 24.1554Z" fill="#F9BA00"/>
<path d="M14.5148 24.2694L5.67285 39.6896L5.86357 39.8004L14.7055 24.3803L14.5148 24.2694Z" fill="#F9B900"/>
<path d="M14.6984 24.3571L5.85645 39.7772L6.04716 39.8881L14.8891 24.4679L14.6984 24.3571Z" fill="#F9B900"/>
<path d="M14.8859 24.4711L6.04395 39.8912L6.23466 40.0021L15.0766 24.582L14.8859 24.4711Z" fill="#F9B800"/>
<path d="M15.0744 24.585L6.23242 40.0051L6.42314 40.116L15.2651 24.6958L15.0744 24.585Z" fill="#F9B800"/>
<path d="M15.2629 24.699L6.4209 40.1191L6.61162 40.23L15.4536 24.8099L15.2629 24.699Z" fill="#F9B700"/>
<path d="M15.4572 24.8018L6.61523 40.2219L6.80595 40.3328L15.6479 24.9126L15.4572 24.8018Z" fill="#F9B700"/>
<path d="M15.6447 24.9158L6.80273 40.3359L6.99345 40.4468L15.8354 25.0267L15.6447 24.9158Z" fill="#F9B600"/>
<path d="M15.8332 25.0297L6.99121 40.4498L7.18193 40.5607L16.0239 25.1406L15.8332 25.0297Z" fill="#F8B600"/>
<path d="M16.0119 25.1381L7.16992 40.5582L7.36064 40.6691L16.2026 25.2489L16.0119 25.1381Z" fill="#F8B600"/>
<path d="M16.205 25.245L16.3922 25.3559L7.59427 40.7002H7.41809L7.36304 40.6669L16.205 25.245Z" fill="#F8B500"/>
<path d="M16.3917 25.3558L16.5899 25.4667L7.84701 40.7002H7.59375L16.3917 25.3558Z" fill="#F8B500"/>
<path d="M16.5926 25.4667L16.7798 25.5665L8.10299 40.7002H7.84973L16.5926 25.4667Z" fill="#F8B500"/>
<path d="M16.7774 25.5664L16.8985 25.644L8.26575 40.7001H8.10059L16.7774 25.5664Z" fill="#F8B500"/>
<path d="M16.9011 25.644L17.0332 25.7217L8.44449 40.7001H8.26831L16.9011 25.644Z" fill="#F8B400"/>
<path d="M17.0301 25.7217L17.1512 25.7882L8.60657 40.7002H8.44141L17.0301 25.7217Z" fill="#F8B400"/>
<path d="M17.1531 25.7882L17.2852 25.8658L8.77357 40.7002H8.6084L17.1531 25.7882Z" fill="#F8B300"/>
<path d="M17.288 25.8658L17.4091 25.9435L8.95255 40.7002H8.77637L17.288 25.8658Z" fill="#F8B200"/>
<path d="M17.4048 25.9435L17.537 26.01L9.11341 40.7002H8.94824L17.4048 25.9435Z" fill="#F8B100"/>
<path d="M17.5396 26.01L17.6608 26.0876L9.28126 40.7002H9.11609L17.5396 26.01Z" fill="#F7B100"/>
<path d="M17.6578 26.0875L17.79 26.1651L9.4545 40.7001H9.27832L17.6578 26.0875Z" fill="#F7B000"/>
<path d="M17.7925 26.1652L17.9136 26.2317L9.6222 40.7002H9.45703L17.7925 26.1652Z" fill="#F7AF00"/>
<path d="M17.9154 26.2317L18.0476 26.3093L9.78919 40.7002H9.62402L17.9154 26.2317Z" fill="#F7AE00"/>
<path d="M18.0443 26.3093L18.1654 26.3758L9.96207 40.7002H9.78589L18.0443 26.3093Z" fill="#F7AD00"/>
<path d="M18.1672 26.3759L18.2993 26.4535L10.129 40.7002H9.96387L18.1672 26.3759Z" fill="#F7AD00"/>
<path d="M18.2964 26.4535L18.4175 26.5311L10.2913 40.7002H10.1261L18.2964 26.4535Z" fill="#F7AC00"/>
<path d="M18.4192 26.531L18.5513 26.5975L10.4691 40.7001H10.293L18.4192 26.531Z" fill="#F6AB00"/>
<path d="M18.5539 26.5975L18.675 26.6751L10.6368 40.7001H10.4717L18.5539 26.5975Z" fill="#F6AA00"/>
<path d="M18.6718 26.6752L18.804 26.7528L10.7988 40.7002H10.6337L18.6718 26.6752Z" fill="#F6AA00"/>
<path d="M18.8059 26.7528L18.927 26.8193L10.977 40.7002H10.8008L18.8059 26.7528Z" fill="#F6A900"/>
<path d="M18.9238 26.8193L19.0559 26.8969L11.1389 40.7002H10.9738L18.9238 26.8193Z" fill="#F6A800"/>
<path d="M19.0586 26.8969L19.1798 26.9745L11.3178 40.7001H11.1416L19.0586 26.8969Z" fill="#F6A700"/>
<path d="M19.1811 26.9745L19.3132 27.041L11.4843 40.7001H11.3191L19.1811 26.9745Z" fill="#F6A600"/>
<path d="M19.3103 27.041L19.4314 27.1186L11.6465 40.7001H11.4813L19.3103 27.041Z" fill="#F5A600"/>
<path d="M19.4333 27.1187L19.5655 27.1963L11.8246 40.7002H11.6484L19.4333 27.1187Z" fill="#F5A500"/>
<path d="M19.5624 27.1963L19.6835 27.2628L11.9867 40.7002H11.8215L19.5624 27.1963Z" fill="#F5A400"/>
<path d="M19.6859 27.2628L19.8181 27.3404L12.1543 40.7002H11.9891L19.6859 27.2628Z" fill="#F5A300"/>
<path d="M19.8201 27.3403L19.9413 27.4179L12.3326 40.7001H12.1564L19.8201 27.3403Z" fill="#F5A200"/>
<path d="M19.9378 27.418L20.07 27.4845L12.4943 40.7001H12.3291L19.9378 27.418Z" fill="#F5A200"/>
<path d="M20.0718 27.4845L20.1929 27.5621L12.6613 40.7001H12.4961L20.0718 27.4845Z" fill="#F5A100"/>
<path d="M20.1908 27.5621L20.3229 27.6287L12.8354 40.7002H12.6592L20.1908 27.5621Z" fill="#F5A000"/>
<path d="M20.3246 27.6287L20.4458 27.7063L13.0022 40.7002H12.837L20.3246 27.6287Z" fill="#F49F00"/>
<path d="M20.4477 27.7063L20.5798 27.7839L13.1693 40.7002H13.0042L20.4477 27.7063Z" fill="#F49F00"/>
<path d="M20.5765 27.7838L20.6977 27.8503L13.3422 40.7001H13.166L20.5765 27.7838Z" fill="#F49E00"/>
<path d="M20.7002 27.8503L20.8323 27.928L13.5099 40.7001H13.3447L20.7002 27.8503Z" fill="#F49D00"/>
<path d="M20.8293 27.928L20.9504 28.0056L13.672 40.7002H13.5068L20.8293 27.928Z" fill="#F49C00"/>
<path d="M20.9522 28.0056L21.0843 28.0721L13.85 40.7002H13.6738L20.9522 28.0056Z" fill="#F49B00"/>
<path d="M21.0859 28.0721L21.207 28.1498L14.0167 40.7002H13.8516L21.0859 28.0721Z" fill="#F49B00"/>
<path d="M21.204 28.1497L21.3361 28.2273L14.1788 40.7001H14.0137L21.204 28.1497Z" fill="#F49A00"/>
<path d="M21.3388 28.2273L21.4599 28.2938L14.3577 40.7001H14.1815L21.3388 28.2273Z" fill="#F39900"/>
<path d="M21.4567 28.2938L21.5888 28.3714L14.5197 40.7001H14.3545L21.4567 28.2938Z" fill="#F39800"/>
<path d="M21.5909 28.3715L21.712 28.4491L14.6869 40.7002H14.5217L21.5909 28.3715Z" fill="#F39700"/>
<path d="M21.7146 28.4491L21.8467 28.5156L14.8656 40.7002H14.6895L21.7146 28.4491Z" fill="#F39600"/>
<path d="M21.8434 28.5156L21.9755 28.5932L15.0275 40.7002H14.8623L21.8434 28.5156Z" fill="#F39600"/>
<path d="M21.9773 28.5931L22.0985 28.6597L15.1945 40.7001H15.0293L21.9773 28.5931Z" fill="#F39500"/>
<path d="M22.0955 28.6597L22.2277 28.7373L15.3677 40.7001H15.1915L22.0955 28.6597Z" fill="#F39400"/>
<path d="M22.2291 28.7373L22.3502 28.8149L15.5343 40.7001H15.3691L22.2291 28.7373Z" fill="#F29300"/>
<path d="M22.3528 28.8149L22.4849 28.8815L15.713 40.7002H15.5369L22.3528 28.8149Z" fill="#F29200"/>
<path d="M22.4818 28.8815L22.603 28.9591L15.8751 40.7002H15.71L22.4818 28.8815Z" fill="#F29200"/>
<path d="M22.6048 28.9591L22.7369 29.0367L16.0421 40.7002H15.877L22.6048 28.9591Z" fill="#F29100"/>
<path d="M22.734 29.0367L22.8551 29.1033L16.2154 40.7002H16.0392L22.734 29.0367Z" fill="#F29000"/>
<path d="M22.8575 29.1031L22.9896 29.1808L16.3829 40.7001H16.2178L22.8575 29.1031Z" fill="#F28F00"/>
<path d="M22.9913 29.1808L23.1125 29.2584L16.5498 40.7001H16.3846L22.9913 29.1808Z" fill="#F28E00"/>
<path d="M23.1095 29.2584L23.2417 29.3249L16.7231 40.7002H16.5469L23.1095 29.2584Z" fill="#F18D00"/>
<path d="M23.2433 29.325L23.3645 29.4026L16.8899 40.7002H16.7247L23.2433 29.325Z" fill="#F18D00"/>
<path d="M23.3615 29.4026L23.4937 29.4802L17.0521 40.7002H16.887L23.3615 29.4026Z" fill="#F18C00"/>
<path d="M23.4962 29.4802L23.6173 29.5467L17.2309 40.7002H17.0547L23.4962 29.4802Z" fill="#F18B00"/>
<path d="M23.6188 29.5468L23.7509 29.6244L17.3975 40.7002H17.2323L23.6188 29.5468Z" fill="#F18A00"/>
<path d="M23.748 29.6243L23.8691 29.7019L17.5597 40.7001H17.3945L23.748 29.6243Z" fill="#F18900"/>
<path d="M23.8709 29.7019L24.0031 29.7684L17.7377 40.7002H17.5615L23.8709 29.7019Z" fill="#F18800"/>
<path d="M23.9997 29.7684L24.0548 29.8017V29.968L17.8995 40.7002H17.7344L23.9997 29.7684Z" fill="#F18800"/>
<path d="M24.0573 30.2674L18.0673 40.7002H17.9021L24.0573 29.968V30.2674Z" fill="#F18700"/>
<path d="M24.0594 30.5556L18.2455 40.7002H18.0693L24.0594 30.2673V30.5556Z" fill="#F08600"/>
<path d="M24.0562 30.855L18.4075 40.7002H18.2423L24.0562 30.5557V30.855Z" fill="#F08500"/>
<path d="M24.0589 31.1432L18.5753 40.7002H18.4102L24.0589 30.855V31.1432Z" fill="#F08400"/>
<path d="M24.0558 31.4425L18.7484 40.7001H18.5723L24.0558 31.1432V31.4425Z" fill="#F08300"/>
<path d="M24.0574 31.7308L18.9152 40.7001H18.75L24.0574 31.4425V31.7308Z" fill="#F08200"/>
<path d="M24.0592 32.0302L19.0822 40.7002H18.917L24.0592 31.7308V32.0302Z" fill="#F08200"/>
<path d="M24.0561 32.3295L19.2553 40.7002H19.0791L24.0561 32.0302V32.3295Z" fill="#F08100"/>
<path d="M24.0587 32.6177L19.423 40.7001H19.2578L24.0587 32.3295V32.6177Z" fill="#EF8000"/>
<path d="M24.0554 32.9171L19.5848 40.7002H19.4197L24.0554 32.6178V32.9171Z" fill="#EF7F00"/>
<path d="M24.0573 33.2054L19.763 40.7002H19.5868L24.0573 32.9171V33.2054Z" fill="#EF7E00"/>
<path d="M24.059 33.5047L19.9298 40.7001H19.7646L24.059 33.2053V33.5047Z" fill="#EF7D00"/>
<path d="M24.0569 33.8041L20.1039 40.7002H19.9277L24.0569 33.5048V33.8041Z" fill="#EF7C00"/>
<path d="M24.0585 34.0923L20.2706 40.7002H20.1055L24.0585 33.8041V34.0923Z" fill="#EF7B00"/>
<path d="M24.0553 34.3916L20.4326 40.7001H20.2675L24.0553 34.0923V34.3916Z" fill="#EF7B00"/>
<path d="M24.0574 34.68L20.6109 40.7002H20.4347L24.0574 34.3917V34.68Z" fill="#EF7A00"/>
<path d="M24.0588 34.9793L20.7775 40.7001H20.6123L24.0588 34.6799V34.9793Z" fill="#EE7900"/>
<path d="M24.0567 35.2675L20.9406 40.7001H20.7754L24.0567 34.9792V35.2675Z" fill="#EE7800"/>
<path d="M24.0587 35.5669L21.1187 40.7002H20.9425L24.0587 35.2676V35.5669Z" fill="#EE7700"/>
<path d="M24.0551 35.8662L21.2803 40.7002H21.1151L24.0551 35.5669V35.8662Z" fill="#EE7600"/>
<path d="M24.057 36.1545L21.4474 40.7001H21.2822L24.057 35.8662V36.1545Z" fill="#EE7500"/>
<path d="M21.4501 40.7002L24.0597 36.1545V40.7002H21.4501Z" fill="#EE7500"/>
</g>
<path d="M26.36 14.1912H22.5281C22.1867 14.1912 22.0656 14.036 22.0656 13.7256V11.7078C22.0656 11.2421 21.7793 10.7543 20.9755 10.7543H20.1497C19.3679 10.7543 19.0706 11.2421 19.0706 11.7078V13.7256C19.0706 14.0249 18.9605 14.1912 18.6081 14.1912H14.7762C14.3138 14.1912 13.8623 14.4351 13.8623 15.1558V15.7988C13.8623 16.5084 14.3138 16.7634 14.7762 16.7634H16.7472C15.5911 17.7391 14.8423 19.1471 14.8423 20.7214C14.8423 23.6151 17.4079 26.0099 20.5681 26.0099C23.7283 26.0099 26.2939 23.5486 26.2939 20.6771C26.2939 19.1028 25.5782 17.728 24.422 16.7745H26.36C26.8224 16.7745 27.2629 16.5195 27.2629 15.8099V15.1669C27.2629 14.4462 26.8224 14.2023 26.36 14.2023V14.1912ZM20.5571 23.4267C19.0486 23.4267 17.8373 22.1849 17.8373 20.7104C17.8373 19.2358 19.0486 17.9608 20.5571 17.9608C22.0656 17.9608 23.2989 19.1138 23.2989 20.6771C23.2989 22.1517 22.0656 23.4156 20.5571 23.4156V23.4267Z" fill="white"/>
<path d="M34.5844 18.0051H32.0298C31.7435 18.0051 31.5673 17.8832 31.5673 17.5506V12.251C31.5673 11.7964 31.27 11.3086 30.4882 11.3086H29.6514C28.8806 11.3086 28.5723 11.7964 28.5723 12.251V30.6775C28.5723 31.1432 28.8696 31.631 29.6514 31.631H30.4882C31.27 31.631 31.5673 31.1432 31.5673 30.6775V21.1316C31.5673 20.7879 31.7325 20.6771 32.0298 20.6771H34.5844C35.0468 20.6771 35.4983 20.3777 35.4983 19.6682V19.014C35.4983 18.3045 35.0468 18.0051 34.5844 18.0051Z" fill="white"/>
<path d="M52.6781 24.114H40.4227C39.8281 24.114 39.5088 24.4134 39.5088 25.0342V29.469C39.5088 30.9768 40.687 31.8527 42.3717 31.8527H50.7182C52.4139 31.8527 53.6031 30.9768 53.6031 29.469V25.0342C53.6031 24.4023 53.2838 24.114 52.6781 24.114ZM50.597 28.8371C50.597 29.1808 50.4319 29.2916 50.1346 29.2916H42.9553C42.647 29.2916 42.5038 29.1808 42.5038 28.8371V27.1408C42.5038 26.8081 42.658 26.6862 42.9553 26.6862H50.1346C50.4319 26.6862 50.597 26.8081 50.597 27.1408V28.8371Z" fill="white"/>
<path d="M52.488 11.1423H51.6621C50.8914 11.1423 50.5941 11.6302 50.5941 12.0847V19.5019C49.592 19.9565 48.6231 20.1782 45.9694 20.1782H39.8802C39.5829 20.1782 39.4287 20.0562 39.4287 19.7015V18.881C39.4287 18.5373 39.5829 18.4265 39.8802 18.4265H46.3548C46.9383 18.4265 47.2687 18.1382 47.2687 17.5062V12.7721C47.2687 12.1512 46.9494 11.8519 46.3548 11.8519H37.3036C36.8521 11.8519 36.3896 12.1069 36.3896 12.8165V13.393C36.3896 14.1136 36.8521 14.3576 37.3036 14.3576H43.8332C44.1415 14.3576 44.2957 14.4684 44.2957 14.8232V15.4884C44.2957 15.8321 44.1415 15.943 43.8332 15.943H37.3696C36.786 15.943 36.4447 16.2423 36.4447 16.8632V20.2558C36.4447 21.7636 37.4027 22.6949 39.3847 22.6949H45.9584C48.6451 22.6949 49.6911 22.3734 50.5941 21.8856V22.3734C50.5941 22.828 50.8914 23.3158 51.6621 23.3158H52.488C53.2918 23.3158 53.5891 22.828 53.5891 22.3734V12.0847C53.5891 11.6302 53.2808 11.1423 52.488 11.1423Z" fill="white"/>
</g>
<defs>
<clipPath id="clip0_97_796">
<rect width="71" height="51" fill="white"/>
</clipPath>
</defs>
</svg>
