<svg width="65" height="42" viewBox="0 0 65 42" fill="none" xmlns="http://www.w3.org/2000/svg">
<mask id="mask0_97_1246" style="mask-type:luminance" maskUnits="userSpaceOnUse" x="0" y="0" width="65" height="42">
<path d="M65 0H0V41.0682H65V0Z" fill="white"/>
</mask>
<g mask="url(#mask0_97_1246)">
<path d="M36.4047 27.7386C36.1854 27.7418 35.9201 27.8762 35.776 27.9366C35.2945 28.1408 34.8047 28.3315 34.2991 28.4481C33.732 28.5784 33.1377 28.6128 32.5695 28.469C32.3251 28.4221 32.017 28.3085 32.017 28.3085C32.0306 28.3137 32.1037 27.8199 32.1069 27.7751C32.1215 27.5751 32.1173 27.3604 32.0651 27.1666C32.0149 26.9854 31.922 26.8207 31.8029 26.6832C31.5585 26.3665 31.1627 26.2144 30.6175 26.2144C29.7579 26.2144 28.9673 26.6061 28.2466 27.3917C27.34 28.4169 26.8867 29.4171 26.8867 30.4162C26.8867 31.2258 27.1896 31.7706 27.7818 32.0363C27.9552 32.0999 28.1536 32.1374 28.351 32.1374C28.8503 32.1374 29.385 31.9228 29.9783 31.505C30.466 31.1622 30.8838 30.7194 31.2337 30.1756C31.3287 30.0234 31.4227 29.8661 31.5366 29.7286C31.6546 29.5869 31.7121 29.6015 31.8854 29.6307C32.2761 29.6973 32.6709 29.7359 33.0657 29.7442C33.8532 29.7598 34.6449 29.6536 35.3979 29.3973C35.6465 29.3129 35.8888 29.2129 36.1259 29.0962C36.3327 28.9941 36.5457 28.8659 36.6491 28.6461C36.7233 28.4877 36.7285 28.3033 36.7317 28.1252C36.7337 28.0335 36.7327 27.9345 36.6826 27.8605C36.6178 27.7668 36.5186 27.7334 36.4068 27.7355M30.6843 28.2846C30.6843 28.6951 30.5277 29.1347 30.2164 29.6004C29.9041 30.0682 29.4884 30.4506 28.9819 30.7194C28.7866 30.8173 28.6184 30.8611 28.4879 30.8611C28.2414 30.8611 28.1244 30.7048 28.1244 30.3933C28.1244 30.2245 28.163 30.0255 28.2539 29.7984C28.4492 29.29 28.8001 28.7524 29.3328 28.1991C29.7757 27.7324 30.1005 27.5063 30.3083 27.5063C30.5036 27.5063 30.6331 27.7178 30.6843 28.1575V28.2846Z" fill="white"/>
<path d="M36.5764 31.1663C35.7064 30.9319 35.2656 30.4308 35.2656 29.6504C35.2656 29.0034 35.5831 28.3127 36.2077 27.5875C36.6986 27.0416 37.6887 26.3321 38.4971 25.9654C38.8146 25.831 39.1113 25.7643 39.388 25.7643C39.5416 25.7643 39.6951 25.7872 39.8392 25.831C40.2173 25.9654 40.4837 26.1987 40.6174 26.5332C40.6685 26.6561 40.6894 26.7905 40.6894 26.9228C40.6894 27.2469 40.5568 27.5803 40.28 27.9491C40.1672 28.072 40.0544 28.1283 39.9416 28.1283C39.8601 28.1283 39.7776 28.0949 39.6962 28.0387C39.5123 27.9168 39.4204 27.7157 39.4204 27.4365V27.3479C39.4309 27.2708 39.4403 27.2041 39.4403 27.1479C39.4403 27.0468 39.41 26.9916 39.3588 26.9916C39.2867 26.9916 39.1228 27.0479 38.8878 27.1479C38.448 27.3479 37.6825 27.8907 37.2522 28.2918C36.8229 28.7044 36.5461 29.0607 36.4229 29.3837C36.4124 29.44 36.402 29.4837 36.402 29.54C36.402 29.8182 36.6276 29.9974 37.0882 30.0755C37.2428 30.0984 37.4161 30.1089 37.6104 30.1089C39.3755 30.1089 41.0978 29.3014 42.7491 28.7107C43.688 28.3742 44.7837 27.9522 45.7466 27.7032C45.8908 27.6657 45.944 27.7813 45.8688 27.9897C45.8166 28.1335 45.7383 28.2658 45.6944 28.4127C45.662 28.5169 45.6986 28.7107 45.6046 28.7742C45.5639 28.8013 45.5127 28.7971 45.4657 28.7951C45.0448 28.7711 44.6406 28.9607 44.2541 29.1462C42.6885 29.8953 41.078 30.7569 39.3891 31.1195C38.775 31.2518 38.1535 31.2695 37.53 31.2695C37.1822 31.2695 36.8647 31.2362 36.5774 31.1695" fill="white"/>
<path d="M45.6023 31.1111C45.571 31.0965 45.5386 31.0819 45.5073 31.0673C44.8942 30.7642 44.4336 30.1891 44.4336 29.4306C44.4336 28.6721 44.6111 28.1032 45.3788 27.2552C46.1997 26.3904 47.3685 25.4767 48.6208 25.3392C48.8506 25.3142 49.3352 25.3923 49.542 25.5069C50.0757 25.8038 50.1833 26.5363 49.9451 27.1343C49.6725 27.8199 49.05 28.1355 48.438 28.2908C48.0839 28.3814 47.4301 28.4585 47.0405 28.5096C46.7575 28.5471 46.3898 28.5679 45.8164 28.7023C45.6504 28.795 45.594 29.1128 45.5647 29.291C45.5229 29.5431 45.5574 29.8067 45.7694 29.9588C45.901 30.0526 46.0608 30.0859 46.2186 30.0953C47.922 30.1922 49.6266 29.4139 51.1431 28.6471C51.3854 28.5252 51.6288 28.4033 51.8659 28.2689C52.951 27.6563 53.6362 27.3552 53.9339 27.3552C54.2702 27.3552 54.5522 28.0657 52.4988 29.218C51.0992 30.0026 49.5514 30.8788 47.9972 31.2101C47.2181 31.3768 46.3554 31.4424 45.6034 31.1101M47.9962 27.5C48.297 27.4427 48.6427 27.275 48.7513 27.0478C49.2798 25.9435 47.2202 26.157 46.2906 27.7C46.7157 27.649 47.6735 27.5604 47.9962 27.5Z" fill="white"/>
<path d="M14.8978 25.5465C14.4466 26.0091 13.984 27.1239 13.984 27.1239L13.0721 29.7994C13.0648 29.8161 13.0586 29.8338 13.0544 29.8515L12.8058 30.5808C12.7682 30.7152 12.7358 30.8736 12.6993 31.0559C12.6638 31.158 12.6272 31.2601 12.5927 31.3622C12.5269 31.5549 12.3724 31.9019 12.3076 32.0946C12.2867 32.1571 12.2731 32.2467 12.2314 32.2936C12.1969 32.3322 11.1232 32.95 9.47195 34.7785C8.56432 35.7839 7.57524 37.5092 7.35277 38.9105C7.26399 39.4689 7.26295 40.1378 7.42588 40.5285C7.60866 40.9692 8.00972 41.1161 8.42646 41.0547C10.3326 40.7744 12.3191 36.4527 12.7975 35.0389C13.1724 33.9304 13.4429 32.2238 13.7625 31.0944C14.2806 29.267 14.9083 27.7292 15.8086 26.0883C16.006 25.7278 15.2404 25.1933 14.8978 25.5455M9.28499 39.0751C9.2359 39.122 8.57686 39.7794 8.3899 39.3564C8.26248 39.0689 8.33977 38.6678 8.43481 38.3833C9.01552 36.6351 11.6454 34.0273 12.1771 33.895C12.1697 34.0919 11.7112 35.0577 11.4909 35.538C11.3331 35.8808 11.2496 36.061 11.1002 36.409C10.6668 37.4123 10.0516 38.3396 9.28604 39.0751" fill="white"/>
<path d="M20.039 28.4627C20.039 28.4554 20.037 28.4491 20.037 28.4429C20.037 28.4272 20.037 28.4106 20.037 28.3939C20.037 28.4012 20.0349 28.4064 20.0338 28.4137C20.0056 28.1741 19.8427 27.9396 19.5899 28.0032C19.4625 28.0355 19.3393 28.1532 19.2338 28.2314C19.005 28.4022 18.7805 28.5793 18.5538 28.7533C17.9052 29.2524 17.2472 29.7369 16.5558 30.1609C15.7788 30.637 14.9714 31.0538 14.1557 31.4476C13.6512 31.6904 13.1238 31.8998 12.6371 32.1852C12.6016 32.2061 12.6183 32.3321 12.635 32.4572L12.3091 33.4636C12.2673 33.498 12.2245 33.5313 12.188 33.5699C12.1618 33.597 12.1859 33.796 12.1859 33.8366C12.1859 33.8772 12.2151 33.9606 12.188 33.9887C12.4658 33.697 12.8877 33.5188 13.2428 33.3573C13.8173 33.0969 14.3176 32.8468 14.9328 32.5343C16.4211 31.78 17.6838 31.0142 18.9319 29.9661C19.1053 29.8202 19.2776 29.6712 19.4531 29.5285C19.616 29.3962 19.8208 29.3118 19.9524 29.1399C20.0871 28.9638 20.0464 28.6752 20.038 28.4627" fill="white"/>
<path d="M29.5655 27.0947C29.5143 26.9614 29.4015 26.8936 29.2271 26.8936C28.9816 26.8936 28.6234 27.028 28.1534 27.2833C27.1089 27.8636 26.1773 28.1532 25.3689 28.1532C24.4581 28.1532 23.844 27.7636 23.5474 26.9822C23.3426 26.3467 23.0962 26.0237 22.8204 26.0237C22.646 26.0237 22.4308 26.1237 22.176 26.3133C21.4386 26.8415 20.2051 28.2449 20.2051 28.2449C20.2051 28.2449 20.3064 27.1197 20.3023 26.6957C20.296 25.9695 19.967 25.3037 19.5231 25.2496C18.9884 25.1829 18.7669 25.6549 18.8766 26.1633C19.0855 27.1333 18.9184 28.0876 18.5361 29.0388C18.134 30.038 18.0233 30.1411 17.8687 30.7881C17.8269 30.9673 17.7799 31.1434 17.7308 31.3195C17.6431 31.6331 17.5898 31.8758 17.5898 32.0019C17.5898 32.2519 17.7925 32.5489 18.0285 32.7166C18.0954 32.7791 18.2781 32.8343 18.2781 32.8343C18.3084 32.8416 18.3387 32.8489 18.368 32.8489C18.4546 32.8489 18.5643 32.6781 18.6959 32.403C19.4792 30.7694 20.3033 29.9807 21.4898 28.6669C21.5337 28.619 21.5775 28.57 21.6224 28.52C21.9598 28.1522 22.175 27.9178 22.2669 27.8396C22.3494 27.7625 22.4204 27.7282 22.4716 27.7282C22.5123 27.7282 22.5844 27.7396 22.7484 28.0845C22.7484 28.0959 22.7484 28.1074 22.7588 28.1189C23.2403 28.943 24.1719 29.3556 25.5537 29.3556C26.0968 29.3556 26.7308 29.2555 27.4578 29.0555C28.1847 28.8659 28.8396 28.4762 29.4443 27.8959C29.578 27.7511 29.649 27.6063 29.649 27.4614C29.649 27.3166 29.6187 27.1937 29.5675 27.0937" fill="white"/>
<path d="M11.9384 25.2767C10.331 25.2141 8.62228 26.3237 7.30837 27.6146C6.20544 28.6971 4.1907 31.2861 5.13593 32.9625C5.52133 33.6449 6.43104 33.723 7.13917 33.6657C8.50844 33.5543 11.1655 32.1227 12.8063 30.5797L13.9845 27.1228C13.9845 27.1228 13.8873 25.3517 11.9384 25.2767ZM12.7186 29.0618C11.9436 30.4901 9.07871 32.0081 8.05933 32.1738C7.21646 32.3113 5.98506 32.2936 6.31615 31.0423C6.69006 29.6285 9.89024 26.5175 11.6846 26.3623C12.657 26.2789 13.3891 27.8271 12.7186 29.0618Z" fill="white"/>
<path d="M64.3902 27.0947C64.3391 26.9614 64.2263 26.8936 64.0518 26.8936C63.8064 26.8936 63.4481 27.028 62.9781 27.2833C61.9337 27.8636 61.0021 28.1532 60.1937 28.1532C59.2829 28.1532 58.6688 27.7636 58.3711 26.9822C58.1664 26.3467 57.9209 26.0237 57.6442 26.0237C57.4697 26.0237 57.2546 26.1237 56.9987 26.3133C56.5788 26.6144 55.9542 27.227 55.125 28.1407C55.1124 28.1543 55.1009 28.1657 55.0895 28.1782C55.0999 28.0751 55.1177 27.8844 55.1354 27.6677C55.1532 27.5083 55.1636 27.3437 55.1751 27.1864H55.173C55.1855 26.9947 55.1949 26.8165 55.1929 26.6957C55.1866 25.9695 54.8576 25.3037 54.4137 25.2496C53.8789 25.1829 53.6586 25.6549 53.7672 26.1633C53.8842 26.704 53.8831 27.2406 53.7943 27.773C53.5008 28.2616 53.4747 28.6742 53.3588 29.0388C53.0601 29.9786 53.0685 29.9359 52.8397 30.612C52.7812 30.785 52.6872 31.1173 52.6371 31.2945C52.5494 31.6081 52.4961 31.8508 52.4961 31.9769C52.4961 32.2269 52.6987 32.5239 52.9348 32.6916C53.0026 32.7541 53.1844 32.8093 53.1844 32.8093C53.2147 32.8156 53.245 32.8239 53.2742 32.8239C53.3598 32.8239 53.4706 32.6531 53.6032 32.378C54.3865 30.7444 55.126 29.9817 56.3125 28.6669C56.3564 28.619 56.4002 28.57 56.4451 28.52C56.7825 28.1522 56.9977 27.9178 57.0896 27.8396C57.1721 27.7625 57.2431 27.7282 57.2943 27.7282C57.335 27.7282 57.4071 27.7396 57.571 28.0845C57.571 28.0959 57.5711 28.1074 57.5815 28.1189C58.063 28.943 58.9946 29.3556 60.3764 29.3556C60.9195 29.3556 61.5535 29.2555 62.2805 29.0555C63.0074 28.8659 63.6623 28.4762 64.267 27.8959C64.4007 27.7511 64.4717 27.6063 64.4717 27.4614C64.4717 27.3166 64.4414 27.1937 64.3892 27.0937" fill="white"/>
<path d="M43.6666 10.0248C43.6666 15.1466 40.1479 20.3611 31.1845 20.3611C29.1186 20.3611 27.5926 20.2986 25.1758 19.9548V0.593827C27.4015 0.281268 28.7363 0.1875 31.1521 0.1875C39.703 0.1875 43.6666 4.06011 43.6666 10.0248ZM38.4528 10.1238C38.4528 5.67395 36.1132 2.8255 31.7359 2.8255C31.3349 2.8255 30.398 2.88489 29.8257 2.97344V17.5397C30.3688 17.6283 31.221 17.6585 31.7641 17.6585C36.1989 17.6585 38.4528 14.1276 38.4528 10.1227" fill="white"/>
<path d="M65.0015 10.0248C65.0015 15.1466 61.4828 20.3611 52.5194 20.3611C50.4535 20.3611 48.9275 20.2986 46.5117 19.9548V0.593827C48.7364 0.281268 50.0722 0.1875 52.488 0.1875C61.0389 0.1875 65.0026 4.06011 65.0026 10.0248M59.7887 10.1238C59.7887 5.67395 57.4491 2.8255 53.0719 2.8255C52.6719 2.8255 51.7339 2.88489 51.1616 2.97344V17.5397C51.7047 17.6283 52.557 17.6585 53.1001 17.6585C57.5348 17.6585 59.7887 14.1276 59.7887 10.1227" fill="white"/>
<path d="M22.1349 10.4926C22.1349 4.2508 17.4589 0.00625118 11.0743 0C11.0743 0 11.0701 0 11.0669 0C11.0638 0 11.0628 0 11.0596 0C4.67598 0.00625118 0 4.2508 0 10.4926C0 17.1397 4.64256 20.5122 11.0607 20.5174C11.0607 20.5174 11.0649 20.5174 11.068 20.5174H11.0753C17.4934 20.5122 22.136 17.1407 22.136 10.4926M11.068 17.719C7.78007 17.7138 5.45827 14.334 5.45827 10.2144C5.45827 6.0949 7.93361 2.80261 11.068 2.7974C14.2024 2.80261 16.6777 6.1522 16.6777 10.2144C16.6777 14.2767 14.3559 17.7148 11.068 17.719Z" fill="white"/>
</g>
</svg>
