<svg width="26" height="26" viewBox="0 0 26 26" fill="none" xmlns="http://www.w3.org/2000/svg">
<g clip-path="url(#clip0_1_1088)">
<mask id="mask0_1_1088" style="mask-type:luminance" maskUnits="userSpaceOnUse" x="0" y="0" width="26" height="26">
<path d="M26 0.0206146H0V25.981H26V0.0206146Z" fill="white"/>
</mask>
<g mask="url(#mask0_1_1088)">
<path d="M13.0071 0C13.0071 0 13.0024 0 13.0008 0C12.9976 0 12.996 0 12.9944 0C4.686 0.00792876 0 6.6554 0 13.4852C0 13.4852 0.0269858 18.4217 3.9685 18.4217C7.91001 18.4217 8.82435 15.2851 8.15764 13.3536C7.33854 10.9829 4.5733 12.2388 4.20184 13.7374C4.20184 13.7374 4.26852 11.0749 6.53691 10.7213C9.51963 10.2551 9.53074 13.7057 9.24025 15.2629C8.74022 17.946 7.26711 26 7.26711 26H18.7297C18.7297 26 17.255 17.946 16.7566 15.2629C16.4677 13.7072 16.2629 10.2741 19.4599 10.7213C21.8886 11.0622 21.795 13.7374 21.795 13.7374C21.4299 12.112 18.6583 10.9829 17.8392 13.3536C17.1709 15.2851 18.3503 18.4217 22.0283 18.4217C25.9698 18.4217 25.9968 13.4852 25.9968 13.4852C26 6.6554 21.314 0.00792876 13.0071 0Z" fill="#886341"/>
</g>
</g>
<defs>
<clipPath id="clip0_1_1088">
<rect width="26" height="26" fill="white"/>
</clipPath>
</defs>
</svg>
