<svg width="33" height="33" viewBox="0 0 33 33" fill="none" xmlns="http://www.w3.org/2000/svg">
<path d="M8.07551 17.751C7.53595 17.7461 7.01867 17.6682 6.53125 17.5276V26.8125H13.0625V22.3437C13.0625 21.5843 13.6781 20.9687 14.4375 20.9687H18.5625C19.3219 20.9687 19.9375 21.5843 19.9375 22.3437V26.8125H26.4688V17.5275C25.9813 17.6681 25.4639 17.7461 24.9242 17.751C24.8483 17.7548 24.7722 17.7548 24.6962 17.751C23.0957 17.7362 21.6537 17.0646 20.625 15.9936C19.5847 17.0766 18.1219 17.7512 16.5 17.7512C14.8781 17.7512 13.4153 17.0766 12.375 15.9936C11.3463 17.0646 9.90432 17.7362 8.30391 17.751C8.22783 17.7548 8.1516 17.7548 8.07551 17.751Z" fill="black" fill-opacity="0.9"/>
<path d="M9.50434 3.56128C7.63412 3.56128 5.97372 4.75802 5.38231 6.53227L4.00731 10.6573C3.07037 13.4681 5.15959 16.3707 8.12077 16.3763C8.16665 16.3798 8.21273 16.3798 8.25861 16.3763C10.1763 16.3726 11.8025 15.1265 12.375 13.4001C12.9485 15.1291 14.5786 16.3763 16.5 16.3763C18.4215 16.3763 20.0516 15.1291 20.625 13.4001C21.1976 15.1265 22.8238 16.3726 24.7415 16.3763C24.7873 16.3798 24.8333 16.3798 24.8791 16.3763C27.8403 16.3707 29.9295 13.4681 28.9926 10.6573L27.6176 6.53227C27.0262 4.75802 25.3658 3.56128 23.4956 3.56128H9.50434Z" fill="black" fill-opacity="0.9"/>
</svg>
