<svg width="33" height="33" viewBox="0 0 33 33" fill="none" xmlns="http://www.w3.org/2000/svg">
<path d="M8.07551 17.751C7.53595 17.7461 7.01867 17.6682 6.53125 17.5276V26.8125H13.0625V22.3437C13.0625 21.5843 13.6781 20.9687 14.4375 20.9687H18.5625C19.3219 20.9687 19.9375 21.5843 19.9375 22.3437V26.8125H26.4688V17.5275C25.9813 17.6681 25.4639 17.7461 24.9242 17.751C24.8483 17.7548 24.7722 17.7548 24.6962 17.751C23.0957 17.7362 21.6537 17.0646 20.625 15.9936C19.5847 17.0766 18.1219 17.7512 16.5 17.7512C14.8781 17.7512 13.4153 17.0766 12.375 15.9936C11.3463 17.0646 9.90432 17.7362 8.30391 17.751C8.22783 17.7548 8.1516 17.7548 8.07551 17.751Z" fill="#F97D01"/>
<path d="M9.50421 3.56128C7.634 3.56128 5.9736 4.75802 5.38219 6.53227L4.00719 10.6573C3.07025 13.4681 5.15947 16.3707 8.12065 16.3763C8.16653 16.3798 8.21261 16.3798 8.25849 16.3763C10.1762 16.3726 11.8023 15.1265 12.3749 13.4001C12.9484 15.1291 14.5785 16.3763 16.4999 16.3763C18.4214 16.3763 20.0515 15.1291 20.6249 13.4001C21.1975 15.1265 22.8237 16.3726 24.7414 16.3763C24.7872 16.3798 24.8332 16.3798 24.879 16.3763C27.8402 16.3707 29.9294 13.4681 28.9925 10.6573L27.6175 6.53227C27.0261 4.75802 25.3657 3.56128 23.4955 3.56128H9.50421Z" fill="#F97D01"/>
</svg>
