<svg width="26" height="26" viewBox="0 0 26 26" fill="none" xmlns="http://www.w3.org/2000/svg">
<g clip-path="url(#clip0_1_1094)">
<mask id="mask0_1_1094" style="mask-type:luminance" maskUnits="userSpaceOnUse" x="0" y="0" width="26" height="26">
<path d="M26 0.00634766H0V25.9937H26V0.00634766Z" fill="white"/>
</mask>
<g mask="url(#mask0_1_1094)">
<path d="M0 13.7342C0 7.92906 3.80341 6.0591 5.59875 5.6051C9.87679 4.52567 12.3738 6.38293 12.3738 6.38293C12.3738 4.99396 11.9896 3.45418 10.6356 3.46212C9.5355 3.46847 8.61957 4.4844 6.87344 4.34789C5.69082 4.25423 3.72086 3.53514 4.07961 -0.00158691H7.78619C13.9326 -0.00158691 13.6596 2.99225 13.6596 6.38293C14.3152 5.90195 16.8074 4.41456 20.8013 5.6051C23.8189 6.50357 26 9.03865 26 13.7342C26 18.7392 23.5919 22.4061 22.0633 23.811C20.7552 25.0126 19.3409 25.9984 16.936 25.9984C15.5311 25.9984 14.3485 25.6555 13.5865 25.1952C13.2341 24.9809 12.7881 25.0285 12.4595 25.2793C11.9118 25.6968 11.161 26 9.61329 26C7.4195 26 5.3162 24.7237 4.37011 23.8126C2.89542 22.3918 0 18.7932 0 13.7342Z" fill="#FF2A00"/>
</g>
</g>
<defs>
<clipPath id="clip0_1_1094">
<rect width="26" height="26" fill="white"/>
</clipPath>
</defs>
</svg>
