<svg width="26" height="26" viewBox="0 0 26 26" fill="none" xmlns="http://www.w3.org/2000/svg">
<g clip-path="url(#clip0_1_903)">
<path d="M19.0313 8.87786C21.0807 9.00489 26 9.30023 26 3.88714V0H20.733C19.1202 0 14.6374 0.524001 16.4978 4.44607C17.5265 6.61512 17.282 7.69171 17.282 7.69171H17.0693C17.0709 5.02247 12.8452 0 9.0069 0H0.0031748C0.0031748 4.94943 7.64174 9.48443 15.1438 7.08037C15.9899 8.203 15.3692 9.62892 13.3278 11.2041C11.9277 10.1116 10.1689 9.46061 8.25606 9.46061C3.69546 9.46061 0 13.1572 0 17.7192V26.0016H8.25606C12.8151 26.0016 16.5121 22.3034 16.5121 17.743V17.7192C16.5121 16.0011 15.9867 14.4053 15.0898 13.0842C15.7533 12.4855 17.7154 11.1978 18.7424 13.1683C20.6013 16.7315 18.0995 23.6896 15.5406 26H17.2217C21.2061 26 25.9937 24.4693 25.9937 19.974C25.9937 15.4787 23.4618 12.5348 20.8568 12.5348C18.8948 12.5348 18.7408 10.8754 17.0042 11.0374C15.8041 11.1501 14.8723 11.9822 14.8723 11.9822C15.6359 10.5245 17.8551 8.80481 19.0313 8.87786Z" fill="black" fill-opacity="0.9"/>
</g>
<defs>
<clipPath id="clip0_1_903">
<rect width="26" height="26" fill="white"/>
</clipPath>
</defs>
</svg>
