<svg width="171" height="82" viewBox="0 0 171 82" fill="none" xmlns="http://www.w3.org/2000/svg">
<path d="M145.807 43.1432C145.609 43.1675 145.418 43.0996 145.2 42.962C144.652 42.6641 144.653 42.2257 144.635 42.0818C144.596 41.758 144.61 41.2815 144.679 40.6521C144.866 38.3101 145.24 35.8537 145.801 33.2832C147.134 27.1848 149.028 21.3463 151.498 15.7292C152.883 12.5827 154.31 9.778 155.801 7.34884C157.274 4.9219 158.71 3.08387 160.104 1.79877C161.107 0.89049 162.012 0.377657 162.857 0.273843C163.253 0.225249 163.624 0.27102 163.985 0.390957C164.796 0.74792 165.273 1.51105 165.415 2.66237C165.47 3.11211 165.476 3.60445 165.436 4.17537C165.247 6.49945 164.319 9.4986 162.636 13.193C161.475 15.7825 159.991 18.5758 158.186 21.5731C156.023 25.2169 153.452 28.9656 150.514 32.8506C149.995 33.5351 149.472 34.1837 148.981 34.7918C148.492 35.418 148.124 35.8465 147.881 36.0956C147.638 36.3446 147.444 36.551 147.334 36.6923C147.099 37.0133 147.042 37.2942 146.987 37.8853L146.984 38.0134C146.936 38.3663 146.927 38.5866 146.94 38.6945C146.947 38.7485 146.969 38.7823 147.023 38.7756C147.113 38.7646 147.442 38.4686 147.992 37.8898L148.12 37.7462C150.953 34.7871 153.17 33.2183 154.753 33.024C155.707 32.9069 156.257 33.3689 156.387 34.4303C156.453 34.97 156.411 35.6691 156.243 36.5297C156.031 37.633 155.929 38.2847 155.955 38.5006C155.973 38.6445 156.02 38.7301 156.081 38.7774C156.182 38.8563 156.386 38.886 156.674 38.8506C158.131 38.6717 160.377 37.4829 163.392 35.2684C164.734 34.3002 165.247 34.018 165.607 33.9738C165.877 33.9407 166.097 34.0963 166.301 34.4182C166.409 34.5511 166.462 34.6906 166.48 34.8345C166.542 35.3382 165.909 35.982 163.844 37.459C160.939 39.5321 158.633 40.6736 156.906 40.8856C156.456 40.9409 156.036 40.9377 155.66 40.8559C154.669 40.6672 154.097 40.0252 153.963 38.9279C153.885 38.2983 153.955 37.5228 154.152 36.6038C154.324 35.9253 154.4 35.4961 154.38 35.3342C154.377 35.3162 154.373 35.2802 154.247 35.2956C154.067 35.3177 153.759 35.4834 153.324 35.8107C152.773 36.2254 152.092 36.7837 151.322 37.4991C149.862 38.847 148.519 40.2536 147.296 41.7369C146.52 42.7086 146.112 43.1057 145.807 43.1432ZM148.008 32.6653C148.098 32.6542 148.544 32.1247 149.329 31.0788C150.21 29.9297 151.238 28.4887 152.4 26.7939C156.845 20.3135 160.054 14.4777 162.066 9.30035C163.158 6.44544 163.633 4.36027 163.467 3.01107C163.41 2.54335 163.219 2.32937 162.895 2.36912C162.482 2.41993 161.847 2.89963 160.988 3.79023C159.233 5.704 157.293 8.64474 155.191 12.6462C154.324 14.3596 153.366 16.5224 152.318 19.1346C151.269 21.7468 150.355 24.2694 149.538 26.6888C148.522 29.7169 147.908 32.0019 147.988 32.6495C147.99 32.6675 147.99 32.6675 148.008 32.6653Z" fill="#002800"/>
<path d="M128.967 53.2273C128.589 53.2737 128.2 53.2302 127.821 53.1124C126.592 52.6242 126.243 51.7174 126.144 50.9079C126.122 50.728 126.116 50.5279 126.127 50.3256C126.221 48.7072 127.002 47.187 128.468 45.7469C129.205 45.0539 130.09 44.5253 131.091 44.2015C131.725 44.014 131.791 43.8051 131.573 41.4397C131.357 38.6359 131.782 36.4472 132.845 34.8376C133.632 33.6636 134.609 32.9958 135.742 32.8567C136.012 32.8235 136.304 32.8242 136.601 32.8608C137.408 33.0356 137.398 33.4021 137.422 33.5999C137.438 33.7259 137.419 33.8742 137.381 34.0068C137.337 34.3956 137.175 34.7077 136.516 34.8434C134.103 35.2675 133.153 37.6484 133.681 41.9478L133.716 42.3818C133.762 42.7596 133.843 42.9688 133.96 43.0275C134.018 43.0569 134.11 43.0638 134.236 43.0484C134.47 43.0196 134.96 42.8499 135.71 42.557C138.497 41.6121 141.199 39.8196 143.817 37.1973C144.36 36.7107 144.763 36.4238 145.03 36.3727C145.298 36.3215 145.476 36.2815 145.529 36.2748C145.907 36.2285 146.19 36.3033 146.343 36.5037C146.406 36.569 146.435 36.6567 146.446 36.7467C146.474 36.9806 146.366 37.2861 146.104 37.6834C145.653 38.3231 145.058 38.9805 144.283 39.66C142.966 40.8261 141.437 41.9086 139.715 42.9052C137.975 43.904 136.328 44.6176 134.756 45.048C133.926 45.2778 133.745 45.446 133.807 45.9497C134.004 47.5507 133.368 49.3635 132.322 50.8067C131.26 52.2702 130.136 53.0838 128.967 53.2273ZM128.774 51.2059C128.917 51.1882 129.093 51.1302 129.282 51.0339C129.986 50.6735 130.812 49.5131 131.338 48.298C131.702 47.5412 131.849 46.957 131.803 46.5792C131.785 46.4353 131.736 46.3318 131.655 46.2687C131.635 46.2529 131.617 46.2551 131.581 46.2595C131.311 46.2927 130.753 46.6534 129.904 47.3237C129.523 47.6444 129.228 47.918 129.019 48.1446C128.313 49.0895 127.992 49.8958 128.074 50.5614C128.107 50.8313 128.205 51.0383 128.383 51.1443C128.481 51.2053 128.612 51.2258 128.774 51.2059Z" fill="#002800"/>
<path d="M120.254 46.0617C119.426 46.1633 118.691 46.1257 118.049 45.949C116.609 45.5232 115.812 44.6897 115.664 43.4844C115.512 42.2431 116.018 40.8661 117.2 39.3333C118.167 38.1372 119.18 37.3189 120.242 36.8963C120.607 36.742 120.942 36.646 121.284 36.6041C122.255 36.4848 122.936 36.8212 123.343 37.6112C123.464 37.852 123.529 38.0814 123.557 38.3153C123.597 38.6391 123.563 38.9538 123.436 39.2615C123.246 39.7961 122.917 40.2383 122.433 40.6081C121.98 40.9376 121.492 41.1254 120.952 41.1916C120.359 41.2645 119.792 41.1149 119.256 40.7608L118.812 40.4136L118.46 40.9681C117.833 41.9582 117.559 42.7039 117.623 43.2256C117.66 43.5314 117.797 43.7521 118.051 43.8852C118.426 44.1131 118.981 44.1728 119.683 44.0866C120.348 44.0049 121.178 43.7752 122.157 43.4176C123.973 42.7382 126.079 41.603 128.495 40.0099C130.28 38.7863 131.426 38.1526 131.948 38.0886C132.343 38.04 132.579 38.3215 132.652 38.9152C132.696 39.2749 132.563 39.5287 131.95 40.0422C131.536 40.3852 130.779 40.9163 129.699 41.6334C125.806 44.2843 122.646 45.7679 120.254 46.0617ZM121.077 39.5328C121.185 39.5196 121.305 39.4502 121.453 39.3223C121.654 39.1699 121.737 38.9588 121.706 38.7069C121.673 38.4371 121.55 38.3244 121.334 38.3509C120.742 38.4418 120.394 38.5759 120.319 38.7129C120.229 38.8701 120.188 38.9846 120.197 39.0566C120.215 39.2005 120.358 39.329 120.626 39.424C120.801 39.512 120.951 39.5483 121.077 39.5328Z" fill="#002800"/>
<path d="M98.5935 49.7619C98.3956 49.7862 98.2293 49.7701 98.0743 49.6979C97.4138 49.5233 97.0193 48.9874 96.911 48.1059C96.7719 46.9726 97.1178 45.031 97.9467 42.2632C98.7076 39.6864 99.3995 37.8849 100.006 36.8791C100.431 36.1697 100.841 35.7906 101.254 35.7398C101.452 35.7155 101.661 35.7812 101.881 35.9368C102.076 36.0406 102.186 36.1915 102.215 36.4253C102.257 36.7671 102.117 37.2591 101.771 37.8676C101.408 38.6244 101.001 39.6239 100.587 40.8617C100.155 42.1017 99.7721 43.2991 99.4571 44.4517C99.0651 45.8693 98.9398 46.6334 98.9729 46.9032C98.9839 46.9932 99.0086 47.0449 99.0625 47.0383C99.1885 47.0228 99.5625 46.6482 100.185 45.9145C100.565 45.4477 101.104 44.779 101.801 43.9082C103.077 42.2542 104.053 41.13 104.731 40.5538C105.143 40.1927 105.501 39.9844 105.806 39.9469C106.292 39.8873 106.788 40.3559 107.274 41.3372C107.95 42.5323 109.107 43.0294 110.708 42.8329C112.129 42.6584 113.708 41.9896 115.428 40.8289C116.205 40.3135 116.808 40.0204 117.24 39.9673C117.546 39.9298 117.757 40.0134 117.873 40.2183C117.983 40.3691 118.062 40.5604 118.09 40.7942C118.119 41.0281 118.022 41.2774 117.817 41.54C116.87 42.6058 115.796 43.3768 114.556 43.8394C113.319 44.32 112.223 44.6189 111.27 44.736C108.841 45.0341 107.123 44.5695 106.114 43.3421C106.094 43.3264 106.091 43.3084 106.089 43.2904C105.733 42.7681 105.605 42.7655 105.533 42.7744C105.443 42.7854 105.324 42.8548 105.195 42.9984C105.049 43.1442 104.717 43.5684 104.196 44.2349C102.891 45.9474 101.825 47.2287 100.998 48.0789C100.013 49.1311 99.2051 49.6868 98.5935 49.7619Z" fill="#002800"/>
<path d="M84.9165 73.7009C84.5568 73.7451 84.1881 73.7173 83.8085 73.5996C82.6875 73.2442 81.871 72.3949 81.3636 71.0876C80.8561 69.7804 80.5197 68.3791 80.3408 66.922C80.2502 66.1844 80.189 65.3885 80.1594 64.5521C79.9439 59.2282 80.8211 52.8389 82.7954 45.4201C83.7628 41.9962 84.9666 38.4154 86.4045 34.6598C88.2155 29.927 89.9009 26.1045 91.4383 23.1584C92.4789 21.2228 93.2139 20.2196 93.6637 20.1643C94.2573 20.0914 94.5896 20.2698 94.6427 20.7015C94.7023 21.1872 94.4331 21.969 93.8214 23.0849C91.9725 26.6171 90.2695 30.2957 88.7302 34.1186C86.644 39.2868 85.6592 42.4207 85.7895 43.4821C85.7984 43.554 85.8072 43.626 85.8318 43.6777C86.0445 44.0716 86.2929 44.6072 86.5409 45.2889C87.169 46.9831 88.1924 47.7339 89.6136 47.5594C91.1247 47.3739 93.3847 46.0007 96.3735 43.4242C97.2137 42.682 97.8777 42.29 98.3275 42.2348C98.7772 42.1796 99.0486 42.4567 99.1237 43.0683C99.1546 43.3201 99.0416 43.5897 98.7869 43.8948C98.5322 44.2 97.9916 44.7047 97.1628 45.3908C95.8881 46.4603 94.6992 47.3367 93.6321 48.0155C92.1037 48.9519 90.7806 49.4796 89.6833 49.6143C89.3775 49.6518 89.1054 49.667 88.829 49.6461C88.4761 49.5982 88.2738 49.5865 88.2019 49.5953C88.0759 49.6108 88.015 49.7096 88.0349 49.8715C88.0636 50.1053 88.1236 50.4449 88.2328 50.888L88.3666 51.3829C88.7295 53 89.016 54.5901 89.2082 56.1551C89.4003 57.7202 89.4959 59.2423 89.5174 60.7553C89.5289 64.7165 89.0476 67.9346 88.0711 70.3919C87.228 72.4493 86.1758 73.5463 84.9165 73.7009ZM84.559 71.6814C84.7569 71.6571 85.0362 71.4036 85.379 70.9233C86.4817 69.3453 87.1502 66.9076 87.398 63.572C87.5581 61.3063 87.4802 58.8873 87.1643 56.3148C86.9722 54.7497 86.65 53.018 86.1978 51.1196C85.7477 49.2393 85.328 47.903 84.9364 47.0928L84.6432 46.4897C83.0509 51.9625 82.2324 57.1942 82.172 62.2051C82.1685 63.8124 82.2373 65.2648 82.3963 66.56C82.7033 69.0606 83.2887 70.7052 84.1525 71.4939C84.2983 71.6403 84.4331 71.6968 84.559 71.6814Z" fill="#002800"/>
<path d="M53.7282 55.2709C53.5304 55.2952 53.364 55.2791 53.2091 55.2068C52.5485 55.0322 52.154 54.4963 52.0458 53.6149C51.9067 52.4815 52.2526 50.54 53.0814 47.7721C53.8424 45.1953 54.5342 43.3938 55.1412 42.388C55.5653 41.6786 55.9753 41.2995 56.3891 41.2487C56.587 41.2244 56.7959 41.2901 57.0159 41.4457C57.2112 41.5495 57.321 41.7004 57.3498 41.9342C57.3917 42.276 57.2513 42.7681 56.906 43.3765C56.5424 44.1333 56.1356 45.1328 55.7215 46.3706C55.2894 47.6106 54.9068 48.808 54.5919 49.9606C54.1998 51.3782 54.0745 52.1423 54.1077 52.4121C54.1187 52.5021 54.1433 52.5538 54.1973 52.5472C54.3232 52.5318 54.6972 52.1571 55.3193 51.4234C55.7002 50.9566 56.239 50.2879 56.9355 49.4171C58.2115 47.7631 59.1874 46.639 59.8653 46.0627C60.2775 45.7016 60.6354 45.4934 60.9412 45.4558C61.4269 45.3962 61.9227 45.8648 62.4084 46.8461C63.0847 48.0413 64.2414 48.5384 65.8424 48.3418C67.2636 48.1673 68.8432 47.4986 70.5633 46.3378C71.34 45.8224 71.9431 45.5293 72.3748 45.4763C72.6806 45.4387 72.8918 45.5223 73.0082 45.7272C73.1181 45.878 73.1963 46.0693 73.225 46.3031C73.2538 46.537 73.1565 46.7863 72.9514 47.0489C72.0049 48.1147 70.9309 48.8857 69.6912 49.3483C68.4537 49.8289 67.3582 50.1278 66.4048 50.2449C63.9762 50.5431 62.2575 50.0784 61.2485 48.8511C61.2283 48.8353 61.2261 48.8173 61.2239 48.7993C60.8676 48.277 60.7395 48.2744 60.6675 48.2833C60.5776 48.2943 60.4583 48.3637 60.3298 48.5073C60.1834 48.6531 59.852 49.0773 59.3312 49.7438C58.0259 51.4563 56.9597 52.7376 56.1328 53.5878C55.1482 54.64 54.3399 55.1958 53.7282 55.2709Z" fill="#002800"/>
<path d="M40.3584 55.6891C40.0526 55.7266 39.7401 55.7102 39.4593 55.6534C38.4954 55.3882 37.9327 54.6721 37.7914 53.5208C37.6169 52.0997 38.1439 50.5924 39.3682 48.9629C40.3466 47.7106 41.5014 47.0028 42.8326 46.8393C43.6781 46.7355 44.3162 46.8763 44.7492 47.2796C45.115 47.5817 45.3277 47.9755 45.3874 48.4613C45.4094 48.6412 45.4135 48.8233 45.4019 49.0256L45.4151 49.1335C45.4571 49.4753 45.7332 49.6423 46.248 49.6704C46.5626 49.7048 46.9808 49.6899 47.4845 49.6281C48.6718 49.4823 50.0305 49.0964 51.5583 48.4522C51.8171 48.3292 52.0759 48.2061 52.2987 48.0874C52.6702 47.841 53.0009 47.709 53.2888 47.6737C53.9544 47.592 54.3249 47.7839 54.3801 48.2336C54.3978 48.3775 54.3839 48.5618 54.3362 48.7685C54.2456 49.0718 53.901 49.3881 53.3203 49.715C52.6023 50.1136 51.7 50.4983 50.6269 50.8309C48.6563 51.4381 47.5006 51.5435 47.1947 51.581C46.4212 51.676 45.7468 51.6858 45.1714 51.6103L45.0793 51.6034C44.9353 51.6211 44.7867 51.7489 44.4774 52.3529C44.0327 53.1927 43.4624 53.9019 42.7665 54.4804C41.9219 55.1867 41.1319 55.5941 40.3584 55.6891ZM40.3405 53.6096C40.5204 53.5875 40.7476 53.5048 41.002 53.3457C41.6616 52.9178 42.1776 52.3614 42.5365 51.7147C42.8953 51.0681 43.0427 50.4839 42.9787 49.9622L42.9588 49.8003C42.8184 49.2515 42.6053 49.0037 42.3355 49.0369C42.0476 49.0722 41.6333 49.4152 41.0945 50.084C40.4431 50.8761 40.0413 51.6194 39.851 52.3001C39.7604 52.6034 39.7374 52.8619 39.7639 53.0778C39.8125 53.4735 39.9987 53.6515 40.3405 53.6096ZM4.19565 78.5359C3.90782 78.5713 3.68091 78.5078 3.53289 78.3434C3.3063 78.1338 3.16965 77.9132 3.14314 77.6973C3.07908 77.1756 3.65128 76.6306 4.88214 76.096C9.8911 73.9106 15.3356 72.0004 21.2134 70.3474C29.3137 68.0563 37.8873 66.2001 46.3909 64.5169C55.4165 62.6235 64.4907 61.1258 73.6473 60.0015C78.5224 59.403 82.4507 58.9754 85.466 58.6965C88.4093 58.4264 90.1 58.3649 90.574 58.5075C91.0253 58.7626 91.2743 59.0059 91.3052 59.2577C91.3251 59.4196 91.2551 59.5926 91.0748 59.7608C90.7324 60.095 90.1384 60.314 89.2929 60.4178C89.0591 60.4466 88.787 60.4617 88.497 60.4791C87.0964 60.5232 82.824 60.9747 75.7183 61.8472C71.2029 62.4016 67.9873 62.833 66.1094 63.1549C54.1475 65.2262 43.9481 67.2272 35.4978 69.1961C28.5164 70.7837 22.8324 72.2303 18.4436 73.5178C14.0548 74.8054 10.1312 76.1637 6.69524 77.6264C5.35865 78.1923 4.51946 78.4962 4.19565 78.5359Z" fill="#002800"/>
<path d="M26.2356 80.9061C25.8758 80.9503 25.5072 80.9225 25.1276 80.8048C24.0066 80.4494 23.1901 79.6001 22.6827 78.2928C22.1752 76.9856 21.8388 75.5843 21.6599 74.1272C21.5693 73.3896 21.5081 72.5937 21.4785 71.7573C21.263 66.4334 22.1402 60.0441 24.1145 52.6253C25.0819 49.2014 26.2856 45.6206 27.7236 41.865C29.5346 37.1322 31.22 33.3097 32.7574 30.3636C33.798 28.428 34.533 27.4248 34.9828 27.3695C35.5764 27.2966 35.9087 27.475 35.9617 27.9067C36.0214 28.3924 35.7522 29.1742 35.1405 30.2901C33.2916 33.8223 31.5886 37.5009 30.0493 41.3238C27.9631 46.492 26.9783 49.6259 27.1086 50.6873C27.1175 50.7592 27.1263 50.8312 27.1509 50.8829C27.3636 51.2768 27.612 51.8124 27.86 52.4941C28.488 54.1883 29.5115 54.9391 30.9327 54.7646C32.4438 54.5791 34.7038 53.2059 37.6926 50.6294C38.5328 49.8872 39.1968 49.4952 39.6466 49.44C40.0963 49.3848 40.3677 49.6619 40.4428 50.2735C40.4737 50.5253 40.3607 50.7949 40.106 51.1C39.8513 51.4052 39.3107 51.9099 38.4819 52.596C37.2072 53.6655 36.0183 54.5419 34.9512 55.2207C33.4227 56.1571 32.0997 56.6848 31.0024 56.8195C30.6966 56.857 30.4245 56.8722 30.148 56.8514C29.7952 56.8034 29.5929 56.7917 29.5209 56.8005C29.395 56.816 29.3341 56.9148 29.354 57.0767C29.3827 57.3105 29.4427 57.6501 29.5518 58.0932L29.6857 58.5881C30.0486 60.2052 30.3351 61.7953 30.5273 63.3603C30.7194 64.9254 30.815 66.4475 30.8364 67.9605C30.848 71.9217 30.3667 75.1398 29.3901 77.5971C28.5471 79.6545 27.4949 80.7515 26.2356 80.9061ZM25.8781 78.8866C26.076 78.8623 26.3553 78.6088 26.6981 78.1285C27.8008 76.5505 28.4693 74.1128 28.7171 70.7772C28.8772 68.5115 28.7993 66.0925 28.4834 63.52C28.2913 61.9549 27.9691 60.2232 27.5168 58.3248C27.0668 56.4445 26.6471 55.1082 26.2555 54.298L25.9623 53.6949C24.37 59.1677 23.5515 64.3994 23.4911 69.4103C23.4876 71.0176 23.5564 72.47 23.7154 73.7652C24.0224 76.2658 24.6078 77.9104 25.4716 78.6991C25.6174 78.8455 25.7522 78.902 25.8781 78.8866Z" fill="#002800"/>
</svg>
