<svg width="148" height="93" viewBox="0 0 148 93" fill="none" xmlns="http://www.w3.org/2000/svg">
<g clip-path="url(#clip0_1_496)">
<mask id="mask0_1_496" style="mask-type:luminance" maskUnits="userSpaceOnUse" x="0" y="0" width="148" height="93">
<path d="M147.25 0H0V93H147.25V0Z" fill="white"/>
</mask>
<g mask="url(#mask0_1_496)">
<path d="M82.4741 62.8147C81.9772 62.8218 81.3762 63.1262 81.0497 63.263C79.959 63.7254 78.8493 64.1572 77.7041 64.4214C76.4193 64.7164 75.073 64.7942 73.7859 64.4686C73.2322 64.3625 72.5342 64.1053 72.5342 64.1053C72.565 64.1171 72.7306 62.9988 72.7377 62.8973C72.7709 62.4443 72.7614 61.9583 72.6431 61.5195C72.5295 61.1089 72.3189 60.7362 72.0492 60.4247C71.4955 59.7075 70.5988 59.363 69.3637 59.363C67.4164 59.363 65.6253 60.2501 63.9927 62.0291C61.939 64.3507 60.9121 66.6156 60.9121 68.8782C60.9121 70.7114 61.5983 71.9453 62.9398 72.547C63.3326 72.6909 63.7821 72.7758 64.2293 72.7758C65.3603 72.7758 66.5718 72.2898 67.9157 71.3437C69.0206 70.5675 69.9671 69.5648 70.7597 68.3332C70.975 67.9887 71.1879 67.6325 71.4458 67.3211C71.7132 67.0002 71.8433 67.0332 72.2361 67.0993C73.121 67.2503 74.0154 67.3376 74.9098 67.3564C76.6938 67.3918 78.4873 67.1512 80.1932 66.5708C80.7563 66.3797 81.3053 66.1532 81.8424 65.8889C82.3108 65.6577 82.7935 65.3675 83.0278 64.8697C83.1958 64.5111 83.2076 64.0935 83.2147 63.69C83.2194 63.4824 83.2171 63.2583 83.1035 63.0908C82.9568 62.8784 82.732 62.8029 82.4788 62.8077M69.5151 64.051C69.5151 64.9806 69.1602 65.9762 68.4551 67.0309C67.7477 68.0902 66.806 68.9561 65.6584 69.5648C65.216 69.7866 64.8351 69.8856 64.5393 69.8856C63.9809 69.8856 63.7159 69.5317 63.7159 68.8263C63.7159 68.4441 63.8034 67.9935 64.0093 67.4791C64.4517 66.3278 65.2467 65.1104 66.4534 63.8576C67.4567 62.8006 68.1925 62.2886 68.6634 62.2886C69.1058 62.2886 69.3992 62.7675 69.5151 63.7632V64.051Z" fill="#002800"/>
<path d="M82.8574 70.577C80.8864 70.0461 79.8879 68.9113 79.8879 67.1442C79.8879 65.679 80.6072 64.1148 82.0221 62.4727C83.1342 61.2364 85.3772 59.6297 87.2086 58.7992C87.9278 58.4949 88.5998 58.3439 89.2268 58.3439C89.5746 58.3439 89.9224 58.3958 90.249 58.4949C91.1055 58.7992 91.7088 59.3277 92.0117 60.0851C92.1276 60.3635 92.1749 60.6678 92.1749 60.9674C92.1749 61.7012 91.8744 62.4562 91.2474 63.2914C90.9919 63.5698 90.7364 63.6972 90.4808 63.6972C90.2963 63.6972 90.1094 63.6217 89.9248 63.4943C89.5084 63.2182 89.3002 62.7629 89.3002 62.1306V61.9301C89.3238 61.7555 89.3451 61.6045 89.3451 61.4771C89.3451 61.2482 89.2765 61.1232 89.1606 61.1232C88.9973 61.1232 88.6258 61.2506 88.0935 61.4771C87.0974 61.9301 85.363 63.1593 84.3882 64.0676C83.4157 65.0019 82.7887 65.8088 82.5095 66.5402C82.4859 66.6676 82.4622 66.7667 82.4622 66.8941C82.4622 67.524 82.9733 67.9298 84.0167 68.1068C84.3669 68.1587 84.7597 68.1823 85.1998 68.1823C89.1984 68.1823 93.1001 66.3538 96.8408 65.0161C98.9679 64.254 101.45 63.2985 103.631 62.7346C103.958 62.6496 104.079 62.9115 103.908 63.3834C103.79 63.709 103.613 64.0086 103.513 64.3413C103.44 64.5772 103.523 65.0161 103.31 65.16C103.217 65.2213 103.101 65.2119 102.995 65.2072C102.041 65.1529 101.126 65.5823 100.25 66.0023C96.7036 67.6986 93.0551 69.6498 89.2292 70.4708C87.8379 70.7705 86.4301 70.8106 85.0176 70.8106C84.2297 70.8106 83.5104 70.7351 82.8597 70.5841" fill="#002800"/>
<path d="M103.305 70.4519C103.234 70.4188 103.161 70.3858 103.09 70.3528C101.701 69.6662 100.657 68.3639 100.657 66.6463C100.657 64.9287 101.06 63.6405 102.799 61.72C104.658 59.7617 107.306 57.6926 110.143 57.3812C110.664 57.3246 111.761 57.5015 112.23 57.761C113.439 58.4334 113.683 60.0921 113.143 61.4463C112.526 62.9987 111.115 63.7136 109.729 64.0652C108.927 64.2704 107.446 64.445 106.563 64.5606C105.922 64.6456 105.089 64.6927 103.79 64.9971C103.414 65.2071 103.286 65.9267 103.22 66.3301C103.125 66.9011 103.203 67.498 103.684 67.8424C103.982 68.0548 104.344 68.1303 104.701 68.1515C108.56 68.3709 112.422 66.6085 115.857 64.8721C116.406 64.596 116.957 64.32 117.494 64.0156C119.953 62.6283 121.505 61.9465 122.179 61.9465C122.941 61.9465 123.58 63.5555 118.928 66.165C115.758 67.9415 112.251 69.9257 108.731 70.676C106.965 71.0535 105.011 71.2021 103.307 70.4495M108.728 62.2744C109.41 62.1447 110.193 61.7648 110.439 61.2505C111.636 58.7496 106.97 59.2333 104.864 62.7274C105.827 62.6118 107.997 62.4113 108.728 62.2744Z" fill="#002800"/>
<path d="M33.7472 57.8507C32.7251 58.8983 31.6769 61.4227 31.6769 61.4227L29.6114 67.4815C29.5948 67.5192 29.5806 67.5593 29.5711 67.5995L29.008 69.251C28.9228 69.5553 28.8495 69.914 28.7667 70.3268C28.6862 70.5581 28.6034 70.7893 28.5253 71.0205C28.3763 71.457 28.0261 72.2426 27.8794 72.6791C27.8321 72.8206 27.8013 73.0236 27.7067 73.1297C27.6286 73.217 25.1963 74.6161 21.4555 78.7567C19.3994 81.0335 17.1587 84.9405 16.6548 88.1138C16.4536 89.3784 16.4513 90.8931 16.8204 91.7779C17.2344 92.7758 18.143 93.1085 19.0871 92.9693C23.4052 92.3347 27.9054 82.5482 28.9891 79.3466C29.8385 76.8362 30.4513 72.9717 31.1753 70.4141C32.3489 66.2759 33.7709 62.7935 35.8105 59.0776C36.2576 58.2612 34.5233 57.0509 33.7472 57.8484M21.032 88.4866C20.9208 88.5928 19.4278 90.0815 19.0043 89.1236C18.7156 88.4724 18.8907 87.5641 19.106 86.92C20.4215 82.961 26.3793 77.0556 27.5836 76.756C27.5671 77.2019 26.5284 79.389 26.0291 80.4767C25.6718 81.2529 25.4826 81.6611 25.1442 82.4491C24.1623 84.7211 22.7687 86.8209 21.0344 88.4866" fill="#002800"/>
<path d="M45.4002 64.4545C45.4002 64.438 45.3955 64.4238 45.3955 64.4097C45.3955 64.3743 45.3955 64.3365 45.3955 64.2988C45.3955 64.3153 45.3908 64.3271 45.3884 64.3436C45.3245 63.801 44.9554 63.2701 44.3828 63.414C44.0942 63.4872 43.815 63.7538 43.576 63.9307C43.0578 64.3177 42.5491 64.7187 42.0357 65.1128C40.5664 66.2429 39.0757 67.34 37.5094 68.3002C35.749 69.3784 33.9201 70.3221 32.0722 71.214C30.9294 71.7637 29.7345 72.2379 28.6319 72.8844C28.5515 72.9316 28.5893 73.217 28.6272 73.5002L27.889 75.7793C27.7943 75.8571 27.6973 75.9326 27.6145 76.0199C27.5553 76.0813 27.6098 76.5319 27.6098 76.6239C27.6098 76.7159 27.676 76.9047 27.6145 76.9684C28.2439 76.3078 29.1998 75.9043 30.0042 75.5386C31.3056 74.9488 32.4389 74.3825 33.8325 73.6748C37.2042 71.9666 40.0647 70.2325 42.8922 67.859C43.285 67.5287 43.6754 67.1913 44.0729 66.8681C44.442 66.5685 44.9057 66.3774 45.2039 65.9881C45.5091 65.5893 45.4168 64.9358 45.3979 64.4545" fill="#002800"/>
<path d="M66.9812 61.3567C66.8652 61.0547 66.6097 60.9014 66.2146 60.9014C65.6585 60.9014 64.847 61.2057 63.7822 61.7838C61.4162 63.0979 59.3056 63.7538 57.4743 63.7538C55.4111 63.7538 54.0198 62.8714 53.3479 61.1019C52.8841 59.6627 52.3257 58.9313 51.7011 58.9313C51.306 58.9313 50.8185 59.1578 50.2412 59.5872C48.5708 60.7834 45.7764 63.9614 45.7764 63.9614C45.7764 63.9614 46.006 61.4134 45.9965 60.4531C45.9823 58.8087 45.237 57.301 44.2314 57.1784C43.02 57.0274 42.5184 58.0961 42.7668 59.2475C43.24 61.444 42.8615 63.6052 41.9955 65.7592C41.0845 68.0218 40.8337 68.2554 40.4836 69.7206C40.3889 70.1264 40.2824 70.5251 40.1712 70.9238C39.9725 71.634 39.8518 72.1837 39.8518 72.4692C39.8518 73.0354 40.3108 73.7078 40.8456 74.0877C40.997 74.2292 41.411 74.3543 41.411 74.3543C41.4797 74.3708 41.5483 74.3873 41.6145 74.3873C41.8109 74.3873 42.0594 74.0004 42.3575 73.3775C44.132 69.6781 45.9989 67.8921 48.6867 64.917C48.7861 64.8084 48.8855 64.6975 48.9872 64.5843C49.7514 63.7514 50.2389 63.2206 50.4471 63.0437C50.634 62.8691 50.7949 62.7912 50.9108 62.7912C51.0031 62.7912 51.1664 62.8172 51.5378 63.5981C51.5378 63.624 51.5378 63.65 51.5615 63.676C52.6522 65.5422 54.7628 66.4765 57.8931 66.4765C59.1234 66.4765 60.5597 66.25 62.2064 65.797C63.8532 65.3676 65.3367 64.4852 66.7067 63.1711C67.0096 62.8431 67.1705 62.5152 67.1705 62.1872C67.1705 61.8593 67.1018 61.5809 66.9859 61.3544" fill="#002800"/>
<path d="M27.0443 57.2397C23.4029 57.0982 19.532 59.6108 16.5555 62.534C14.0569 64.9854 9.49278 70.8483 11.6341 74.6445C12.5072 76.1898 14.568 76.3668 16.1722 76.237C19.2741 75.9846 25.2934 72.7429 29.0105 69.2487L31.6794 61.4204C31.6794 61.4204 31.4594 57.4096 27.0443 57.2397ZM28.8117 65.8112C27.0561 69.0458 20.566 72.4833 18.2567 72.8585C16.3473 73.1699 13.5577 73.1298 14.3077 70.2962C15.1548 67.0946 22.4044 60.0497 26.4693 59.6981C28.6721 59.5094 30.3308 63.0154 28.8117 65.8112Z" fill="#002800"/>
<path d="M145.871 61.3567C145.755 61.0547 145.499 60.9014 145.104 60.9014C144.548 60.9014 143.736 61.2057 142.672 61.7838C140.306 63.0979 138.195 63.7538 136.364 63.7538C134.301 63.7538 132.909 62.8714 132.235 61.1019C131.771 59.6627 131.215 58.9313 130.588 58.9313C130.193 58.9313 129.706 59.1578 129.126 59.5872C128.175 60.2691 126.76 61.6564 124.881 63.7255C124.853 63.7562 124.827 63.7821 124.801 63.8104C124.824 63.5769 124.865 63.1451 124.905 62.6544C124.945 62.2934 124.969 61.9206 124.995 61.5644H124.99C125.018 61.1302 125.04 60.7268 125.035 60.4531C125.021 58.8087 124.275 57.301 123.27 57.1784C122.058 57.0274 121.559 58.0961 121.805 59.2475C122.07 60.472 122.068 61.687 121.867 62.8927C121.202 63.9992 121.143 64.9335 120.88 65.7592C120.203 67.8874 120.222 67.7906 119.704 69.3218C119.572 69.7135 119.359 70.4661 119.245 70.8672C119.046 71.5773 118.926 72.1271 118.926 72.4125C118.926 72.9788 119.385 73.6512 119.92 74.031C120.073 74.1726 120.485 74.2976 120.485 74.2976C120.554 74.3118 120.622 74.3307 120.688 74.3307C120.883 74.3307 121.133 73.9437 121.434 73.3209C123.208 69.6215 124.884 67.8944 127.571 64.917C127.671 64.8084 127.77 64.6975 127.872 64.5843C128.636 63.7514 129.124 63.2206 129.332 63.0437C129.519 62.8691 129.68 62.7912 129.796 62.7912C129.888 62.7912 130.051 62.8172 130.423 63.5981C130.423 63.624 130.423 63.65 130.446 63.676C131.537 65.5422 133.647 66.4765 136.778 66.4765C138.008 66.4765 139.444 66.25 141.091 65.797C142.738 65.3676 144.221 64.4852 145.591 63.1711C145.894 62.8431 146.055 62.5152 146.055 62.1872C146.055 61.8593 145.987 61.5809 145.868 61.3544" fill="#002800"/>
<path d="M98.9231 22.7015C98.9231 34.2999 90.9518 46.1084 70.6462 46.1084C65.9661 46.1084 62.5093 45.9668 57.0342 45.1882V1.34482C62.0763 0.637022 65.1001 0.424683 70.5728 0.424683C89.9438 0.424683 98.9231 9.19431 98.9231 22.7015ZM87.1117 22.9256C87.1117 12.8489 81.8117 6.3985 71.8955 6.3985C70.9869 6.3985 68.8645 6.53298 67.5679 6.73353V39.7193C68.7983 39.9198 70.729 39.9883 71.9593 39.9883C82.0057 39.9883 87.1117 31.9925 87.1117 22.9232" fill="#002800"/>
<path d="M147.25 22.7015C147.25 34.2999 139.279 46.1084 118.973 46.1084C114.293 46.1084 110.836 45.9668 105.364 45.1882V1.34482C110.403 0.637022 113.429 0.424683 118.902 0.424683C138.273 0.424683 147.252 9.19431 147.252 22.7015M135.441 22.9256C135.441 12.8489 130.141 6.3985 120.225 6.3985C119.319 6.3985 117.194 6.53298 115.897 6.73353V39.7193C117.128 39.9198 119.058 39.9883 120.289 39.9883C130.335 39.9883 135.441 31.9925 135.441 22.9232" fill="#002800"/>
<path d="M50.1441 23.7608C50.1441 9.62606 39.5512 0.014156 25.0874 0C25.0874 0 25.078 0 25.0709 0C25.0638 0 25.0614 0 25.0543 0C10.5929 0.014156 0 9.62606 0 23.7608C0 38.8133 10.5172 46.4505 25.0567 46.4622C25.0567 46.4622 25.0661 46.4622 25.0732 46.4622H25.0898C39.6293 46.4505 50.1465 38.8157 50.1465 23.7608M25.0732 40.1251C17.6249 40.1133 12.3651 32.4596 12.3651 23.1309C12.3651 13.8021 17.9727 6.34659 25.0732 6.3348C32.1738 6.34659 37.7814 13.9318 37.7814 23.1309C37.7814 32.3299 32.5216 40.1157 25.0732 40.1251Z" fill="#002800"/>
</g>
</g>
<defs>
<clipPath id="clip0_1_496">
<rect width="147.25" height="93" fill="white"/>
</clipPath>
</defs>
</svg>
